mtllib materials.mtl
v 0.1700004 -0.1224999 0.08000004
v 0.1500004 -0.1224999 0.1
v 0.1500004 0.3874998 0.1000002
v 0.1700004 0.3874998 0.08000019
v -0.1699997 -0.1224999 0.07999998
v -0.1699997 0.3874998 0.08000013
v -0.1499997 0.3874998 0.1000001
v -0.1499997 -0.1224999 0.09999999
v -0.1700006 -0.1425002 0.08000037
v -0.1700006 -0.1225002 0.08000034
v 0.1699997 -0.1224997 0.0800001
v 0.1699997 -0.1424997 0.0800001
v -0.1700001 -0.1425002 -0.2600002
v 0.1699998 -0.1424999 -0.2600005
v 0.1699998 -0.1224999 -0.2600004
v -0.1700003 -0.1225002 -0.2600002
vn 0.7071064 -2.348819E-07 0.7071073
vn -0.7071072 -1.047043E-07 0.7071064
vn -4.969903E-08 -1 -7.548999E-07
vn -1.141876E-08 1 -6.747678E-07
vn 1.677419E-07 2.894291E-07 -1
vn -1.717076E-07 -2.474282E-07 1
vn 6.733391E-07 8.940708E-07 1
vn -6.706094E-07 1.341103E-06 -1
vn -1 -3.946192E-06 -8.82673E-07
vn 1 4.983067E-07 2.143135E-07
vn 1.052285E-06 -1 3.509409E-07
vn -1.052285E-06 1 -3.511827E-07
vt 0.141755 0.06987138
vt 0.143062 0.06736301
vt 0.188291 0.0909285
vt 0.186984 0.09343687
vt 0.1538968 0.07362245
vt 0.1882041 0.1113585
vt 0.1861112 0.1132612
vt 0.151804 0.0755251
vt -0.03491183 -0.0204492
vt -0.04634729 -0.05246843
vt -0.04379113 -0.05125762
vt -0.03370102 -0.02300536
vt 0.03491156 -0.0204493
vt 0.03370075 -0.02300546
vt 0.04379084 -0.05125772
vt 0.046347 -0.05246854
vt -0.1551831 0.0429325
vt -0.2007989 0.06574038
vt -0.2160041 0.03532984
vt -0.1703884 0.01252196
vt 0.1560775 0.04114364
vt 0.1694939 0.01431081
vt 0.2151097 0.0371187
vt 0.2016933 0.06395152
vt 0.1685995 0.01162752
vt 0.1703884 0.01252195
vt 0.1551832 0.04293252
vt 0.1533943 0.04203809
vt -0.1685994 0.01162742
vt -0.1533942 0.04203796
vt -0.1551831 0.04293239
vt -0.1703883 0.01252184
vt -0.069517 0.1420544
vt -0.04185011 0.1618167
vt -0.04301259 0.1634441
vt -0.07067948 0.1436819
vt 0.06951623 0.1420546
vt 0.0706787 0.143682
vt 0.04301173 0.1634442
vt 0.04184925 0.1618167
vt -0.04634703 -0.05246844
vt -0.03491161 -0.02044918
vt -0.0669309 -0.009013722
vt -0.07836629 -0.04103296
vt 0.04634703 -0.05246844
vt 0.07836629 -0.04103297
vt 0.06693089 -0.009013725
vt 0.03491161 -0.02044918
o group128369032
g mesh128369032
usemtl mat23
f 4/4/1 3/3/1 2/2/1 1/1/1
f 8/8/2 7/7/2 6/6/2 5/5/2
f 2/12/3 8/11/3 5/10/3 1/9/3
f 6/16/4 7/15/4 3/14/4 4/13/4
f 5/20/5 6/19/5 4/18/5 1/17/5
f 3/24/6 7/23/6 8/22/6 2/21/6
o group756052679
g mesh756052679
usemtl mat21
f 12/28/7 11/27/7 10/26/7 9/25/7
f 16/32/8 15/31/8 14/30/8 13/29/8
f 10/36/9 16/35/9 13/34/9 9/33/9
f 14/40/10 15/39/10 11/38/10 12/37/10
f 13/44/11 14/43/11 12/42/11 9/41/11
f 11/48/12 15/47/12 16/46/12 10/45/12
