mtllib materials.mtl
v 0.1700001 -0.2549998 -0.17
v 0.1900001 -0.2549998 -0.15
v 0.1900002 0.255 -0.1500001
v 0.1700003 0.255 -0.1700001
v 0.1700001 -0.2549996 0.1700001
v 0.1700002 0.255 0.17
v 0.1900002 0.255 0.15
v 0.1900001 -0.2549998 0.1500002
v -0.1700001 -0.255 0.1700001
v -0.1900001 -0.255 0.15
v -0.1900004 0.2549998 0.1500001
v -0.1700004 0.2549998 0.1700001
v -0.17 -0.255 -0.1700001
v -0.1700002 0.2549998 -0.17
v -0.1900002 0.2549998 -0.15
v -0.19 -0.255 -0.1500002
vn 0.7071072 -3.585162E-07 -0.7071064
vn 0.7071065 1.893025E-08 0.7071072
vn -7.549E-07 -1 2.245446E-07
vn -6.747678E-07 1 -1.634267E-07
vn -1 2.894291E-07 -5.87592E-08
vn 1 -2.474282E-07 6.272488E-08
vn -0.7071075 -3.585164E-07 0.7071061
vn -0.7071062 -2.283387E-07 -0.7071075
vn 9.297456E-07 -1 -4.969884E-08
vn 4.999223E-07 1 -1.141851E-08
vn 1 4.642746E-07 4.759918E-07
vn -1 -4.222738E-07 -4.799575E-07
vt -0.1538968 0.07362249
vt -0.151804 0.07552515
vt -0.1861112 0.1132612
vt -0.1882041 0.1113586
vt 0.1417551 0.06987139
vt 0.1869841 0.09343689
vt 0.1856772 0.09594526
vt 0.1404481 0.07237975
vt -0.06693094 -0.009013922
vt -0.03491171 -0.02044937
vt -0.03612252 -0.01789321
vt -0.06437479 -0.007803115
vt 0.06693087 -0.009013673
vt 0.0643747 -0.007802864
vt 0.03612243 -0.01789296
vt 0.03491163 -0.02044911
vt -0.04301161 0.1634442
vt -0.07265472 0.2049446
vt -0.1003217 0.1851825
vt -0.07067857 0.1436821
vt 0.04463908 0.1622817
vt 0.0690511 0.1448446
vt 0.09869422 0.186345
vt 0.0742822 0.2037821
vt 0.1538968 0.07362247
vt 0.1559896 0.07171981
vt 0.1902969 0.1094559
vt 0.1882041 0.1113585
vt -0.1417551 0.06987132
vt -0.1869841 0.09343679
vt -0.188291 0.09092842
vt -0.143062 0.06736295
vt -0.0463471 -0.05246835
vt -0.07836634 -0.0410329
vt -0.07715554 -0.04358906
vt -0.04890326 -0.05367916
vt 0.04634719 -0.05246861
vt 0.04890335 -0.05367942
vt 0.07715561 -0.0435893
vt 0.07836642 -0.04103315
vt 0.07067877 0.143682
vt 0.1003219 0.1851824
vt 0.07265502 0.2049445
vt 0.04301184 0.1634441
vt -0.06905129 0.1448445
vt -0.04463929 0.1622817
vt -0.07428248 0.203782
vt -0.09869447 0.1863448
o group240847654
g mesh240847654
usemtl mat23
f 4/4/1 3/3/1 2/2/1 1/1/1
f 8/8/2 7/7/2 6/6/2 5/5/2
f 2/12/3 8/11/3 5/10/3 1/9/3
f 6/16/4 7/15/4 3/14/4 4/13/4
f 5/20/5 6/19/5 4/18/5 1/17/5
f 3/24/6 7/23/6 8/22/6 2/21/6
o group1386337691
g mesh1386337691
usemtl mat23
f 12/28/7 11/27/7 10/26/7 9/25/7
f 16/32/8 15/31/8 14/30/8 13/29/8
f 10/36/9 16/35/9 13/34/9 9/33/9
f 14/40/10 15/39/10 11/38/10 12/37/10
f 13/44/11 14/43/11 12/42/11 9/41/11
f 11/48/12 15/47/12 16/46/12 10/45/12
