mtllib materials.mtl
v -0.17 -0.2549999 0.01000005
v -0.15 -0.2549999 -0.009999931
v -0.1500001 0.2549999 -0.01000017
v -0.1700001 0.2549999 0.009999812
v 0.1700001 -0.2549998 0.01000017
v 0.17 0.2549999 0.009999931
v 0.15 0.2549999 -0.01000005
v 0.1500002 -0.2549999 -0.009999812
vn -0.7071062 -4.821509E-07 -0.7071074
vn 0.7071074 -1.047041E-07 -0.7071062
vn 2.245445E-07 -1 9.297455E-07
vn -1.634269E-07 1 4.999222E-07
vn -3.363295E-07 4.642746E-07 1
vn 3.402952E-07 -4.222737E-07 -1
vt -0.1417551 0.06987133
vt -0.1404482 0.0723797
vt -0.1856772 0.09594519
vt -0.1869841 0.09343682
vt -0.1538968 0.07362249
vt -0.188204 0.1113586
vt -0.1902969 0.1094559
vt -0.1559896 0.07171983
vt -0.07836621 -0.04103307
vt -0.06693078 -0.00901384
vt -0.06948693 -0.01022465
vt -0.07957703 -0.03847692
vt 0.07836651 -0.04103295
vt 0.07957732 -0.03847679
vt 0.0694872 -0.01022453
vt 0.06693105 -0.009013717
vt 0.1703884 0.01252202
vt 0.2160042 0.0353299
vt 0.2007989 0.06574042
vt 0.1551831 0.04293255
vt -0.169494 0.01431086
vt -0.1560775 0.04114369
vt -0.2016933 0.06395157
vt -0.2151097 0.03711874
o group1978143402
g mesh1978143402
usemtl mat23
f 4/4/1 3/3/1 2/2/1 1/1/1
f 8/8/2 7/7/2 6/6/2 5/5/2
f 2/12/3 8/11/3 5/10/3 1/9/3
f 6/16/4 7/15/4 3/14/4 4/13/4
f 5/20/5 6/19/5 4/18/5 1/17/5
f 3/24/6 7/23/6 8/22/6 2/21/6
