mtllib materials.mtl
v 0.01000002 0.01226509 -0.2071155
v 0.01500002 0.01092529 -0.2071155
v 0.01499999 0.01092541 0.01288456
v 0.009999961 0.01226509 0.01288456
v 0.01866025 0.007265091 -0.2071155
v 0.01866022 0.007265091 0.01288456
v 0.02000001 0.002265096 -0.2071155
v 0.01999998 0.002265096 0.01288456
v 0.01866025 -0.0027349 -0.2071155
v 0.01866022 -0.0027349 0.01288456
v 0.01500002 -0.006395221 -0.2071155
v 0.01499999 -0.006395102 0.01288456
v 0.00999999 -0.007734895 -0.2071155
v 0.009999961 -0.007734895 0.01288456
v 0.004999995 -0.006395221 -0.2071155
v 0.004999965 -0.006395102 0.01288456
v 0.001339763 -0.0027349 -0.2071155
v 0.001339734 -0.0027349 0.01288456
v 0 0.002265096 -0.2071155
v -2.980232E-08 0.002265096 0.01288456
v 0.001339763 0.007265091 -0.2071155
v 0.001339734 0.007265091 0.01288456
v 0.004999995 0.01092529 -0.2071155
v 0.004999965 0.01092541 0.01288456
v -0.00999999 0.01226509 -0.2071155
v -0.004999995 0.01092529 -0.2071155
v -0.005000025 0.01092541 0.01288456
v -0.01000005 0.01226509 0.01288456
v -0.001339763 0.007265091 -0.2071155
v -0.001339793 0.007265091 0.01288456
v 0 0.002265096 -0.2071155
v -2.980232E-08 0.002265096 0.01288462
v -0.001339763 -0.0027349 -0.2071155
v -0.001339793 -0.0027349 0.01288462
v -0.004999995 -0.006395221 -0.2071155
v -0.005000025 -0.006395102 0.01288462
v -0.01000002 -0.007734895 -0.2071155
v -0.01000005 -0.007734895 0.01288456
v -0.01500002 -0.006395221 -0.2071155
v -0.01500005 -0.006395102 0.01288456
v -0.01866025 -0.0027349 -0.2071155
v -0.01866028 -0.0027349 0.01288456
v -0.02000001 0.002265096 -0.2071155
v -0.02000004 0.002265096 0.01288462
v -0.01866025 0.007265091 -0.2071155
v -0.01866028 0.007265091 0.01288462
v -0.01500002 0.01092529 -0.2071155
v -0.01500005 0.01092541 0.01288462
v 0 0.03226507 -0.2071154
v 0.004999995 0.03092527 -0.2071154
v 0.004999995 0.03092539 0.01288465
v 0 0.03226507 0.01288465
v 0.008660257 0.02726507 -0.2071154
v 0.008660257 0.02726507 0.01288465
v 0.00999999 0.02226508 -0.2071154
v 0.00999999 0.02226508 0.01288465
v 0.008660257 0.01726508 -0.2071154
v 0.008660257 0.01726508 0.01288465
v 0.004999995 0.01360476 -0.2071154
v 0.004999995 0.01360488 0.01288465
v 0 0.01226509 -0.2071154
v 0 0.01226509 0.01288465
v -0.004999995 0.01360476 -0.2071154
v -0.004999995 0.01360488 0.01288465
v -0.008660257 0.01726508 -0.2071154
v -0.008660257 0.01726508 0.01288465
v -0.00999999 0.02226508 -0.2071154
v -0.00999999 0.02226508 0.01288465
v -0.008660257 0.02726507 -0.2071154
v -0.008660257 0.02726507 0.01288465
v -0.004999995 0.03092527 -0.2071154
v -0.004999995 0.03092539 0.01288465
v -0.0200001 -0.007734895 0.01288462
v -0.0200001 0.01226509 0.01288462
v -0.02000016 0.01226509 0.05288479
v -0.02000016 -0.007734895 0.05288479
v 0.01999992 -0.007734895 0.01288462
v 0.01999986 -0.007734895 0.05288479
v 0.01999986 0.01226509 0.05288479
v 0.01999992 0.01226509 0.01288462
v 0.009999931 0.03226507 0.01288462
v -0.01000011 0.03226507 0.01288462
v -0.01000017 0.03226507 0.05288467
v 0.009999871 0.03226507 0.05288467
v -0.01000005 -0.02773488 -0.1171154
v -0.02000004 0.002265096 -0.1271154
v -0.02000004 0.002265096 0.002884626
v -0.01000005 -0.02773488 0.002884656
v 0.00999999 -0.02773488 -0.1171154
v 0.00999999 -0.02773488 0.002884656
v 0.01999998 0.002265096 0.002884626
v 0.01999998 0.002265096 -0.1271154
v -0.01000002 -0.02773488 0.002884597
v -0.02000001 0.002265096 0.002884597
v -0.02000001 0.002265096 0.0528847
v -0.01000002 -0.02773488 0.0528847
v 0.01000002 -0.02773488 0.002884597
v 0.01000002 -0.02773488 0.0528847
v 0.02000001 0.002265096 0.0528847
v 0.02000001 0.002265096 0.002884597
v -0.02000001 -0.007735133 0.05288458
v -0.02000001 0.01226485 0.05288458
v -0.02000007 0.01226485 0.09288475
v -0.02000001 0.002265096 0.1028847
v 0.02000001 -0.007735133 0.05288458
v 0.02000001 0.002265096 0.1028847
v 0.01999995 0.01226485 0.09288475
v 0.02000001 0.01226485 0.05288458
v 0.01000002 0.03226483 0.05288458
v -0.01000002 0.03226483 0.05288458
v 0.009999961 0.03226483 0.07288468
v -0.01000008 0.03226483 0.07288468
v -0.01000002 -0.02773488 0.05288461
v -0.02000001 0.002265096 0.05288458
v -0.02000001 0.002265096 0.1028847
v -0.01000002 -0.02773488 0.0828847
v 0.01000002 -0.02773488 0.05288461
v 0.01000002 -0.02773488 0.0828847
v 0.02000001 0.002265096 0.1028847
v 0.02000001 0.002265096 0.05288458
v -0.01000011 -0.05850399 0.1590388
v 0.01499999 -0.01042724 0.1369234
v -0.01500002 -0.01042724 0.1369234
v 0.009999931 -0.05850399 0.1590388
v -0.01000011 -0.0685041 0.1390388
v 0.009999931 -0.0685041 0.1390388
v 0.00999999 -0.04311943 0.1709619
v -0.01000005 -0.04311943 0.1709619
v -0.00999999 0.002265096 0.08288458
v -0.00999999 0.02226508 0.08288458
v -0.00999999 0.02226508 0.1128846
v -0.00999999 -0.007734895 0.1228846
v 0.00999999 0.002265096 0.08288458
v 0.00999999 -0.007734895 0.1228846
v 0.00999999 0.02226508 0.1128846
v 0.00999999 0.02226508 0.08288458
vn 0.258819 0.9659258 -4.132246E-07
vn 0.7071068 0.7071068 1.622499E-07
vn 0.9659258 0.258819 1.324101E-07
vn 0.9659259 -0.258819 2.884649E-07
vn 0.7071068 -0.7071068 3.87141E-07
vn 0.258819 -0.9659258 1.872284E-07
vn -0.2588194 -0.9659258 3.275477E-07
vn -0.7071069 -0.7071067 -1.990094E-08
vn -0.9659258 -0.2588191 -2.037796E-07
vn -0.9659258 0.2588191 -1.256189E-07
vn -0.7071068 0.7071069 -5.098754E-07
vn -0.2588187 0.965926 -8.770104E-08
vn 1.748456E-07 -1.192093E-07 -1
vn -1.748456E-07 1.192093E-07 1
vn 0.2588191 0.9659258 -3.908207E-07
vn 0.7071068 0.7071068 1.493517E-07
vn 0.9659258 0.258819 1.216837E-07
vn 0.9659258 -0.258819 2.67844E-07
vn 0.7071068 -0.7071068 3.667968E-07
vn 0.2588188 -0.9659259 1.724049E-07
vn -0.2588192 -0.9659259 3.096671E-07
vn -0.7071069 -0.7071068 -2.055009E-08
vn -0.9659258 -0.2588191 -1.971233E-07
vn -0.9659258 0.2588191 -1.161834E-07
vn -0.7071068 0.7071069 -4.823113E-07
vn -0.2588187 0.9659259 -8.402385E-08
vn 1.748456E-07 -1.192093E-07 -1
vn -1.748456E-07 1.192093E-07 1
vn 0.2588189 0.9659259 -3.139258E-07
vn 0.7071069 0.7071068 -2.454047E-08
vn 0.9659258 0.258819 2.842948E-08
vn 0.9659258 -0.258819 8.125862E-09
vn 0.7071068 -0.7071068 2.264755E-07
vn 0.2588187 -0.9659259 7.719489E-08
vn -0.2588192 -0.9659258 2.862771E-07
vn -0.7071069 -0.7071067 3.227856E-08
vn -0.9659258 -0.2588191 5.05146E-08
vn -0.9659258 0.2588191 -2.054164E-08
vn -0.7071068 0.7071068 -2.199483E-07
vn -0.2588189 0.9659259 -4.811668E-09
vn 0 -1.192093E-07 -1
vn 0 1.192093E-07 1
vn -1 0 -8.742277E-08
vn 1 0 8.742277E-08
vn 8.742278E-08 1.192093E-07 -1
vn -4.599513E-07 2.688043E-07 1
vn 0 -1 1.192093E-07
vn 0 1 -1.192093E-07
vn -0.8944272 0.4472136 7.54973E-08
vn 0.8944272 0.4472136 1.250486E-07
vn -0.9486834 -0.3162272 -2.55982E-07
vn 0.9486833 -0.3162277 2.424419E-08
vn 8.768551E-08 -0.3162286 -0.9486831
vn -8.742278E-08 -1.192093E-07 1
vn 0 -1 1.192093E-07
vn 0 1 -1.192093E-07
vn -0.9486834 -0.3162272 -2.55982E-07
vn 0.9486833 -0.3162277 2.424419E-08
vn 8.742278E-08 1.192093E-07 -1
vn -8.742278E-08 -1.192093E-07 1
vn 0 -1 1.192093E-07
vn 0 1 -1.192093E-07
vn -1 0 -8.742277E-08
vn 1 0 8.742277E-08
vn 8.742278E-08 1.192093E-07 -1
vn -6.663724E-08 0.7071133 0.7071003
vn 4.465646E-10 -0.98058 0.1961201
vn 0 1 -1.192093E-07
vn -0.8944272 0.4472136 7.54973E-08
vn 0.8944272 0.4472136 1.250486E-07
vn -1.12521E-07 0.7071079 0.7071058
vn -8.716913E-08 0.7071078 0.7071058
vn 7.162778E-08 0.707113 0.7071006
vn 1.072003E-08 -0.98058 0.1961201
vn -0.9486834 -0.3162272 -2.55982E-07
vn 0.9486833 -0.3162277 2.424419E-08
vn 8.742278E-08 1.192093E-07 -1
vn -0.9621543 -0.252661 -0.1020857
vn 0 -1 1.192093E-07
vn 0 1 -1.192093E-07
vn 3.204535E-08 0.936981 0.3493806
vn 0.9621542 -0.2526622 -0.1020838
vn -2.101604E-07 -0.8092166 -0.5875106
vn -9.366987E-07 -0.8944255 0.4472171
vn -1 1.306963E-06 -6.385571E-07
vn 1 -1.306965E-06 6.29536E-07
vn -1.297685E-06 -0.6125734 0.7904137
vn -0.9925764 -0.0745009 0.09613416
vn 0.9925762 -0.07450601 0.09613146
vn -6.11962E-08 0.7212255 0.6927004
vn -0.989383 -5.193322E-07 0.1453317
vn 0.9893829 -3.948812E-07 0.1453326
vn -1 0 -8.742277E-08
vn 1 0 8.742277E-08
vn 8.742278E-08 1.192093E-07 -1
vn 1.422336E-09 0.3162278 0.9486834
vn -4.791578E-08 -0.9701427 -0.2425352
vn 0 1 -1.192093E-07
vt 0.01657192 -0.07447074
vt 0.01636867 -0.07399467
vt -0.00386445 -0.08263301
vt -0.003661198 -0.08310908
vt 0.09837617 -0.1170871
vt 0.0980083 -0.1167229
vt 0.08253072 -0.1323577
vt 0.0828986 -0.1327218
vt 0.1673916 0.08852662
vt 0.1669532 0.08825146
vt 0.178648 0.06961732
vt 0.1790865 0.06989248
vt 0.08847126 0.1514811
vt 0.0882467 0.1510147
vt 0.1080689 0.141471
vt 0.1082934 0.1419374
vt 0.04967983 0.1036697
vt 0.04951465 0.1031792
vt 0.07036442 0.09615867
vt 0.0705296 0.09664924
vt 0.02038967 0.01737186
vt 0.0202292 0.01687972
vt 0.04114544 0.01005981
vt 0.04130591 0.01055195
vt -0.01636873 -0.07399473
vt -0.01657198 -0.0744708
vt 0.00366114 -0.08310915
vt 0.003864392 -0.08263308
vt -0.0980083 -0.116723
vt -0.09837618 -0.1170871
vt -0.0828986 -0.1327219
vt -0.08253073 -0.1323577
vt -0.1669532 0.08825143
vt -0.1673916 0.08852659
vt -0.1790865 0.06989246
vt -0.178648 0.06961729
vt -0.08824666 0.1510147
vt -0.08847121 0.1514811
vt -0.1082934 0.1419374
vt -0.1080688 0.141471
vt -0.04951467 0.1031791
vt -0.04967985 0.1036697
vt -0.07052962 0.09664923
vt -0.07036443 0.09615865
vt -0.02022917 0.01687967
vt -0.02038964 0.01737181
vt -0.04130587 0.0105519
vt -0.04114541 0.01005977
vt -0.1812253 0.05986672
vt -0.1810616 0.05937565
vt -0.1806743 0.05903221
vt -0.1801672 0.05892844
vt -0.1796761 0.05909212
vt -0.1793326 0.05947942
vt -0.1792289 0.05998655
vt -0.1793926 0.06047763
vt -0.1797799 0.06082106
vt -0.180287 0.06092484
vt -0.1807781 0.06076115
vt -0.1811215 0.06037385
vt 0.1811215 0.06037385
vt 0.1807781 0.06076115
vt 0.180287 0.06092484
vt 0.1797799 0.06082106
vt 0.1793926 0.06047763
vt 0.1792289 0.05998655
vt 0.1793326 0.05947942
vt 0.1796761 0.05909213
vt 0.1801672 0.05892844
vt 0.1806743 0.05903221
vt 0.1810616 0.05937565
vt 0.1812253 0.05986672
vt 0.01733048 -0.07624745
vt 0.01712723 -0.07577138
vt -0.003105893 -0.08440973
vt -0.002902642 -0.08488579
vt 0.0993812 -0.118082
vt 0.09901334 -0.1177179
vt 0.08353575 -0.1333526
vt 0.08390363 -0.1337168
vt 0.1678301 0.08880179
vt 0.1673916 0.08852662
vt 0.1790865 0.06989248
vt 0.1795249 0.07016765
vt 0.08824669 0.1510147
vt 0.08802213 0.1505483
vt 0.1078443 0.1410046
vt 0.1080688 0.141471
vt 0.04922853 0.1023295
vt 0.04906335 0.1018389
vt 0.06991313 0.0948184
vt 0.07007831 0.09530897
vt 0.01979079 0.01553514
vt 0.01963032 0.015043
vt 0.04054656 0.008223092
vt 0.04070704 0.008715233
vt -0.01712726 -0.0757714
vt -0.01733051 -0.07624746
vt 0.002902612 -0.08488581
vt 0.003105863 -0.08440974
vt -0.09901334 -0.1177179
vt -0.0993812 -0.1180821
vt -0.08390363 -0.1337168
vt -0.08353575 -0.1333526
vt -0.1673916 0.0885266
vt -0.1678301 0.08880176
vt -0.1795249 0.07016762
vt -0.1790865 0.06989246
vt -0.0880221 0.1505483
vt -0.08824665 0.1510147
vt -0.1080688 0.141471
vt -0.1078443 0.1410046
vt -0.04906337 0.1018389
vt -0.04922855 0.1023294
vt -0.07007833 0.09530895
vt -0.06991314 0.09481838
vt -0.0196303 0.01504299
vt -0.01979077 0.01553514
vt -0.04070701 0.008715222
vt -0.04054655 0.008223084
vt -0.1821197 0.05807786
vt -0.181956 0.0575868
vt -0.1815687 0.05724335
vt -0.1810616 0.05713958
vt -0.1805705 0.05730327
vt -0.1802271 0.05769057
vt -0.1801233 0.0581977
vt -0.180287 0.05868877
vt -0.1806743 0.05903221
vt -0.1811814 0.05913598
vt -0.1816725 0.05897229
vt -0.1820159 0.058585
vt 0.1820159 0.058585
vt 0.1816725 0.0589723
vt 0.1811814 0.05913598
vt 0.1806743 0.05903221
vt 0.180287 0.05868877
vt 0.1801233 0.0581977
vt 0.1802271 0.05769057
vt 0.1805705 0.05730327
vt 0.1810616 0.05713958
vt 0.1815687 0.05724335
vt 0.181956 0.05758679
vt 0.1821197 0.05807786
vt 0.01715445 -0.07583512
vt 0.01695119 -0.07535906
vt -0.003281928 -0.08399741
vt -0.003078677 -0.08447347
vt 0.0998837 -0.1185796
vt 0.09951583 -0.1182154
vt 0.08403825 -0.1338501
vt 0.08440612 -0.1342143
vt 0.1692471 0.08969115
vt 0.1688087 0.08941598
vt 0.1805035 0.07078185
vt 0.180942 0.07105701
vt 0.08919697 0.1529885
vt 0.08897241 0.1525221
vt 0.1087946 0.1429784
vt 0.1090191 0.1434448
vt 0.04990546 0.1043399
vt 0.04974027 0.1038493
vt 0.07059005 0.09682883
vt 0.07075523 0.0973194
vt 0.02025068 0.01694561
vt 0.02009021 0.01645347
vt 0.04100645 0.009633565
vt 0.04116692 0.0101257
vt -0.01695124 -0.07535912
vt -0.01715449 -0.07583518
vt 0.003078633 -0.08447353
vt 0.003281885 -0.08399746
vt -0.09951584 -0.1182154
vt -0.09988372 -0.1185795
vt -0.08440613 -0.1342143
vt -0.08403827 -0.1338501
vt -0.1688087 0.089416
vt -0.1692471 0.08969117
vt -0.180942 0.07105704
vt -0.1805035 0.07078186
vt -0.08897241 0.1525221
vt -0.08919697 0.1529885
vt -0.1090191 0.1434448
vt -0.1087946 0.1429784
vt -0.04974028 0.1038493
vt -0.04990546 0.1043399
vt -0.07075523 0.09731941
vt -0.07059005 0.09682883
vt -0.02009021 0.0164535
vt -0.02025067 0.01694564
vt -0.04116691 0.01012573
vt -0.04100645 0.009633599
vt -0.1834613 0.05986671
vt -0.1832977 0.05937564
vt -0.1829104 0.0590322
vt -0.1824032 0.05892842
vt -0.1819122 0.05909211
vt -0.1815687 0.05947942
vt -0.1814649 0.05998654
vt -0.1816286 0.06047762
vt -0.1820159 0.06082106
vt -0.1825231 0.06092483
vt -0.1830141 0.06076114
vt -0.1833576 0.06037384
vt 0.1833576 0.06037384
vt 0.1830141 0.06076114
vt 0.182523 0.06092483
vt 0.1820159 0.06082105
vt 0.1816286 0.06047761
vt 0.1814649 0.05998654
vt 0.1815687 0.05947942
vt 0.1819122 0.05909212
vt 0.1824032 0.05892842
vt 0.1829104 0.0590322
vt 0.1832976 0.05937564
vt 0.1834613 0.05986672
vt -0.137986 0.1312436
vt -0.1391484 0.132871
vt -0.1424034 0.1305461
vt -0.1412409 0.1289186
vt 0.137986 0.1312436
vt 0.1412409 0.1289186
vt 0.1424034 0.1305461
vt 0.1391484 0.132871
vt -0.1806743 0.05679612
vt -0.1788854 0.06037383
vt -0.1806743 0.06126826
vt -0.1829104 0.06126826
vt -0.1838048 0.0594794
vt -0.1824632 0.05769055
vt 0.1806743 0.05679615
vt 0.1824631 0.05769058
vt 0.1838048 0.05947943
vt 0.1829104 0.06126829
vt 0.1806743 0.06126829
vt 0.1788854 0.06037387
vt 0.02381264 -0.04036038
vt 0.02757962 -0.04170574
vt 0.02892497 -0.03793877
vt 0.02515799 -0.03659341
vt -0.02414898 -0.03941864
vt -0.02482165 -0.03753515
vt -0.02858862 -0.0388805
vt -0.02791595 -0.040764
vt -0.0911454 0.1311843
vt -0.09197459 0.1332609
vt -0.0956894 0.1317776
vt -0.09486021 0.129701
vt 0.1806743 -0.04000003
vt 0.1829104 -0.04000002
vt 0.1829104 -0.03600001
vt 0.1806743 -0.03600001
vt -0.1781788 0.05373014
vt -0.1806655 0.05592469
vt -0.1859282 0.04403755
vt -0.1830366 0.04275739
vt 0.08970017 0.142693
vt 0.100636 0.1377526
vt 0.1019379 0.1406345
vt 0.09009074 0.1459865
vt -0.1597522 0.0601881
vt -0.1587394 0.0619127
vt -0.1609598 0.06437639
vt -0.1629854 0.06092721
vt 0.1784382 0.05679613
vt 0.1815687 0.05724334
vt 0.1797799 0.06082105
vt 0.1775438 0.05858499
vt 0.01190633 -0.03504626
vt 0.02320724 -0.0390823
vt 0.02387992 -0.03719881
vt 0.01257901 -0.03316278
vt -0.01062825 -0.03565167
vt -0.0119736 -0.0318847
vt -0.02421625 -0.03625707
vt -0.0228709 -0.04002404
vt -0.1830366 0.0427574
vt -0.1859282 0.04403755
vt -0.1879523 0.03946556
vt -0.1850608 0.03818541
vt 0.100636 0.1377526
vt 0.1051927 0.1356942
vt 0.1064945 0.138576
vt 0.1019379 0.1406345
vt -0.1784382 0.05679613
vt -0.1775438 0.05858499
vt -0.1797799 0.06082106
vt -0.1815687 0.05724334
vt 0.1784382 0.05679613
vt 0.1815687 0.05724335
vt 0.1797799 0.06082106
vt 0.1775438 0.05858499
vt 0.02320724 -0.0390823
vt 0.02791596 -0.04076398
vt 0.02858863 -0.03888049
vt 0.02387991 -0.03719881
vt -0.0228709 -0.04002403
vt -0.02421625 -0.03625707
vt -0.02892497 -0.03793875
vt -0.02757962 -0.04170572
vt -0.1412409 0.1289186
vt -0.1424033 0.1305461
vt -0.1456583 0.1282211
vt -0.1458908 0.1268261
vt 0.1412409 0.1289186
vt 0.1458908 0.1268261
vt 0.1456583 0.1282211
vt 0.1424033 0.1305461
vt -0.1806743 0.05679612
vt -0.1788854 0.06037383
vt -0.1806743 0.06126826
vt -0.1829104 0.06126826
vt -0.1838048 0.0594794
vt -0.1824631 0.05769055
vt 0.103231 0.02748726
vt 0.1011577 0.03090801
vt 0.09994829 0.03017501
vt 0.06625937 -0.04764608
vt 0.07218163 -0.04501417
vt 0.06723735 -0.04376747
vt -0.02791595 -0.04076398
vt -0.02858862 -0.03888049
vt -0.03047211 -0.03955317
vt -0.02979944 -0.04143666
vt -0.09486019 0.129701
vt -0.09568939 0.1317776
vt -0.0975468 0.1310359
vt -0.09857501 0.1282176
vt 0.1806743 -0.04400002
vt 0.1829103 -0.04200002
vt 0.1829103 -0.04000001
vt 0.1806743 -0.04000001
vt 0.103232 0.02748799
vt 0.1051325 0.02980921
vt 0.1040959 0.03151958
vt 0.103232 0.02748798
vt 0.1040959 0.03151958
vt 0.1011588 0.03090873
vt 0.09994835 0.03017502
vt 0.1020216 0.02675427
vt 0.103231 0.02748727
vt 0.06625937 -0.04764608
vt 0.07120365 -0.04889276
vt 0.07218163 -0.04501416
vt -0.1850607 0.03818541
vt -0.1879523 0.03946557
vt -0.1899764 0.03489358
vt -0.1862752 0.03544222
vt 0.1051926 0.1356942
vt 0.1079266 0.1344591
vt 0.1110512 0.1365176
vt 0.1064945 0.138576
vt -0.1784382 0.05679613
vt -0.1775438 0.05858499
vt -0.1797799 0.06082106
vt -0.1815687 0.05724335
vt -0.1852034 0.0455531
vt -0.1889223 0.04514132
vt -0.1859107 0.0373701
vt 0.02791595 -0.04076398
vt 0.03074118 -0.04177299
vt 0.03141386 -0.0398895
vt 0.02858862 -0.03888049
vt -0.02757961 -0.04170572
vt -0.02892496 -0.03793875
vt -0.03363368 -0.03962043
vt -0.03228833 -0.04338741
vt 0.03457312 -0.01605808
vt 0.03275772 -0.01249376
vt 0.02974753 -0.01458805
vt 0.03110908 -0.01726129
vt 0.09519456 0.1517794
vt 0.09222319 0.1495055
vt 0.09839229 0.1440829
vt -0.0774378 0.01387749
vt -0.0784448 0.0121495
vt -0.07244928 0.008655529
vt -0.07144227 0.01038352
vt 0.1210611 -0.04073418
vt 0.123287 -0.04094749
vt 0.1234778 -0.0389566
vt 0.1212519 -0.0387433
vt -0.146928 0.1186173
vt -0.1447193 0.118966
vt -0.1425196 0.1255475
vt 0.1425196 0.1255475
vt 0.1447193 0.118966
vt 0.146928 0.1186173
vt 0.1787495 0.004119815
vt 0.1768327 0.003781629
vt 0.1771802 0.001812044
vt 0.179097 0.002150231
vt -0.1351429 0.1400053
vt -0.1386177 0.1325308
vt -0.1367991 0.1318372
vt 0.1531843 0.1079912
vt 0.1550725 0.1084632
vt 0.1525131 0.1162985
vt 0.09453934 0.02613746
vt 0.09075788 0.02326961
vt 0.09179182 0.0215576
vt 0.09609024 0.02356944
vt -0.109296 0.1581499
vt -0.111985 0.1556565
vt -0.1139056 0.1513166
vt 0.1686265 0.09092999
vt 0.1684992 0.09567422
vt 0.1669596 0.09900241
vt -0.1442633 0.1279886
vt -0.1454258 0.1296161
vt -0.147867 0.1278724
vt -0.146937 0.12485
vt 0.1442633 0.1279886
vt 0.146937 0.12485
vt 0.147867 0.1278724
vt 0.1454258 0.1296161
vt -0.1811215 0.05813777
vt -0.1802271 0.05992663
vt -0.1820159 0.06082105
vt -0.1829104 0.0590322
vt 0.154844 0.0573056
vt 0.1575708 0.058907
vt 0.156558 0.06063158
vt 0.1538312 0.05903019
vt -0.01580195 -0.02462431
vt -0.01206721 -0.02637123
vt -0.01121983 -0.02455961
vt -0.01495457 -0.0228127
vt -0.03074117 -0.04177298
vt -0.03141385 -0.0398895
vt -0.03423907 -0.04089851
vt -0.0335664 -0.04278199
o group198898665
g mesh198898665
usemtl mat17
f 4/4/1 3/3/1 2/2/1 1/1/1
f 3/8/2 6/7/2 5/6/2 2/5/2
f 6/12/3 8/11/3 7/10/3 5/9/3
f 8/16/4 10/15/4 9/14/4 7/13/4
f 10/20/5 12/19/5 11/18/5 9/17/5
f 12/24/6 14/23/6 13/22/6 11/21/6
f 14/28/7 16/27/7 15/26/7 13/25/7
f 16/32/8 18/31/8 17/30/8 15/29/8
f 18/36/9 20/35/9 19/34/9 17/33/9
f 20/40/10 22/39/10 21/38/10 19/37/10
f 22/44/11 24/43/11 23/42/11 21/41/11
f 24/48/12 4/47/12 1/46/12 23/45/12
f 1/60/13 2/59/13 5/58/13 7/57/13 9/56/13 11/55/13 13/54/13 15/53/13 17/52/13 19/51/13 21/50/13 23/49/13
f 24/72/14 22/71/14 20/70/14 18/69/14 16/68/14 14/67/14 12/66/14 10/65/14 8/64/14 6/63/14 3/62/14 4/61/14
o group725920552
g mesh725920552
usemtl mat17
f 28/76/15 27/75/15 26/74/15 25/73/15
f 27/80/16 30/79/16 29/78/16 26/77/16
f 30/84/17 32/83/17 31/82/17 29/81/17
f 32/88/18 34/87/18 33/86/18 31/85/18
f 34/92/19 36/91/19 35/90/19 33/89/19
f 36/96/20 38/95/20 37/94/20 35/93/20
f 38/100/21 40/99/21 39/98/21 37/97/21
f 40/104/22 42/103/22 41/102/22 39/101/22
f 42/108/23 44/107/23 43/106/23 41/105/23
f 44/112/24 46/111/24 45/110/24 43/109/24
f 46/116/25 48/115/25 47/114/25 45/113/25
f 48/120/26 28/119/26 25/118/26 47/117/26
f 25/132/27 26/131/27 29/130/27 31/129/27 33/128/27 35/127/27 37/126/27 39/125/27 41/124/27 43/123/27 45/122/27 47/121/27
f 48/144/28 46/143/28 44/142/28 42/141/28 40/140/28 38/139/28 36/138/28 34/137/28 32/136/28 30/135/28 27/134/28 28/133/28
o group1220418920
g mesh1220418920
usemtl mat17
f 52/148/29 51/147/29 50/146/29 49/145/29
f 51/152/30 54/151/30 53/150/30 50/149/30
f 54/156/31 56/155/31 55/154/31 53/153/31
f 56/160/32 58/159/32 57/158/32 55/157/32
f 58/164/33 60/163/33 59/162/33 57/161/33
f 60/168/34 62/167/34 61/166/34 59/165/34
f 62/172/35 64/171/35 63/170/35 61/169/35
f 64/176/36 66/175/36 65/174/36 63/173/36
f 66/180/37 68/179/37 67/178/37 65/177/37
f 68/184/38 70/183/38 69/182/38 67/181/38
f 70/188/39 72/187/39 71/186/39 69/185/39
f 72/192/40 52/191/40 49/190/40 71/189/40
f 49/204/41 50/203/41 53/202/41 55/201/41 57/200/41 59/199/41 61/198/41 63/197/41 65/196/41 67/195/41 69/194/41 71/193/41
f 72/216/42 70/215/42 68/214/42 66/213/42 64/212/42 62/211/42 60/210/42 58/209/42 56/208/42 54/207/42 51/206/42 52/205/42
o group813794705
g mesh813794705
usemtl mat16
f 76/220/43 75/219/43 74/218/43 73/217/43
f 80/224/44 79/223/44 78/222/44 77/221/44
f 74/230/45 82/229/45 81/228/45 80/227/45 77/226/45 73/225/45
f 78/236/46 79/235/46 84/234/46 83/233/46 75/232/46 76/231/46
f 77/240/47 78/239/47 76/238/47 73/237/47
f 83/244/48 84/243/48 81/242/48 82/241/48
f 75/248/49 83/247/49 82/246/49 74/245/49
f 80/252/50 81/251/50 84/250/50 79/249/50
o group834424939
g mesh834424939
usemtl mat20
f 88/256/51 87/255/51 86/254/51 85/253/51
f 92/260/52 91/259/52 90/258/52 89/257/52
f 86/264/53 92/263/53 89/262/53 85/261/53
f 90/268/54 91/267/54 87/266/54 88/265/54
f 89/272/55 90/271/55 88/270/55 85/269/55
f 87/276/56 91/275/56 92/274/56 86/273/56
o group1627079884
g mesh1627079884
usemtl mat16
f 96/280/57 95/279/57 94/278/57 93/277/57
f 100/284/58 99/283/58 98/282/58 97/281/58
f 94/288/59 100/287/59 97/286/59 93/285/59
f 98/292/60 99/291/60 95/290/60 96/289/60
f 97/296/61 98/295/61 96/294/61 93/293/61
f 95/300/62 99/299/62 100/298/62 94/297/62
o group1291674878
g mesh1291674878
usemtl mat20
f 104/304/63 103/303/63 102/302/63 101/301/63
f 108/308/64 107/307/64 106/306/64 105/305/64
f 102/314/65 110/313/65 109/312/65 108/311/65 105/310/65 101/309/65
f 106/317/66 107/316/66 103/315/66
f 105/320/67 106/319/67 101/318/67
f 112/324/68 111/323/68 109/322/68 110/321/68
f 103/328/69 112/327/69 110/326/69 102/325/69
f 108/332/70 109/331/70 111/330/70 107/329/70
f 111/335/71 112/334/71 103/333/71
f 107/338/72 111/337/72 103/336/72
f 103/341/73 104/340/73 106/339/73
f 106/344/74 104/343/74 101/342/74
o group1500122055
g mesh1500122055
usemtl mat20
f 116/348/75 115/347/75 114/346/75 113/345/75
f 120/352/76 119/351/76 118/350/76 117/349/76
f 114/356/77 120/355/77 117/354/77 113/353/77
f 121/359/78 115/358/78 116/357/78
f 117/363/79 118/362/79 116/361/79 113/360/79
f 115/367/80 119/366/80 120/365/80 114/364/80
f 123/371/81 122/370/81 119/369/81 115/368/81
f 124/374/82 118/373/82 119/372/82
f 126/378/83 125/377/83 116/376/83 118/375/83
f 126/382/84 124/381/84 121/380/84 125/379/84
f 116/385/85 125/384/85 121/383/85
f 124/388/86 126/387/86 118/386/86
f 128/392/87 121/391/87 124/390/87 127/389/87
f 121/395/88 128/394/88 115/393/88
f 119/398/89 127/397/89 124/396/89
f 123/402/90 128/401/90 127/400/90 122/399/90
f 128/405/91 123/404/91 115/403/91
f 119/408/92 122/407/92 127/406/92
o group964330119
g mesh964330119
usemtl mat17
f 132/412/93 131/411/93 130/410/93 129/409/93
f 136/416/94 135/415/94 134/414/94 133/413/94
f 130/420/95 136/419/95 133/418/95 129/417/95
f 134/424/96 135/423/96 131/422/96 132/421/96
f 133/428/97 134/427/97 132/426/97 129/425/97
f 131/432/98 135/431/98 136/430/98 130/429/98
