mtllib materials.mtl
v -0.05708194 -0.02373159 0.04310271
v 0.1011387 0.01314032 0.05343267
v 0.1031789 -0.0007463694 0.06007749
v 0.09919202 0.02179444 0.04068625
v 0.09786057 0.02289724 0.02525365
v 0.09750104 0.0161531 0.01126999
v 0.09820974 0.003369331 0.002482206
v 0.09979689 -0.01202893 0.001244932
v 0.1018372 -0.0259155 0.007889748
v 0.1037838 -0.03456962 0.02063614
v 0.1051153 -0.03567243 0.03606877
v 0.1054748 -0.0289284 0.0500524
v 0.104766 -0.01614451 0.05884022
v -0.05720222 -0.02775526 0.0461475
v 0.01145625 0.06271768 -0.0704743
v 0.01236308 0.04974878 -0.07896766
v 0.003181458 0.0746789 -0.06503272
v -0.01024425 0.08242738 -0.06410098
v -0.02522326 0.08388686 -0.06792873
v -0.03774214 0.07866621 -0.07549033
v -0.04444635 0.06816447 -0.08475965
v -0.04353964 0.05519545 -0.09325302
v -0.03526473 0.04323423 -0.09869459
v -0.02183914 0.03548586 -0.09962633
v -0.006860018 0.03402638 -0.09579858
v 0.005658746 0.03924692 -0.08823699
v -0.05923223 -0.02338862 0.04772928
v 0.06890357 -0.07227254 -0.03997242
v 0.06293106 -0.08659339 -0.03934139
v 0.06911731 -0.05805326 -0.04621094
v 0.06351507 -0.04774535 -0.05638534
v 0.05359793 -0.04411113 -0.06776938
v 0.04202318 -0.04812407 -0.07731274
v 0.0318923 -0.05870914 -0.08245826
v 0.0259198 -0.07302988 -0.08182719
v 0.02570605 -0.08724928 -0.07558867
v 0.03130829 -0.09755707 -0.06541428
v 0.04122543 -0.1011914 -0.05403024
v 0.05280018 -0.09717834 -0.04448691
v -0.06229544 -0.03255403 0.04700762
v 0.0295788 0.1015321 0.03806311
v 0.04118717 0.09236372 0.03333667
v 0.01652873 0.10937 0.03499421
v 0.005533695 0.1137769 0.02495223
v -0.0004602671 0.1135724 0.01062793
v 0.0001530647 0.1088109 -0.004140496
v 0.007209301 0.1007684 -0.01539591
v 0.01881766 0.09159994 -0.02012235
v 0.03186774 0.08376217 -0.01705346
v 0.04286277 0.07935512 -0.007011473
v 0.04885674 0.0795598 0.007312834
v 0.0482434 0.08432126 0.02208129
vn -0.1538379 0.408014 0.8999215
vn -0.2215289 0.79072 0.5706899
vn -0.2771864 0.9563769 0.09225535
vn -0.3058968 0.8605971 -0.4071853
vn -0.2999674 0.5290447 -0.7938081
vn -0.2609869 0.05055908 -0.9640175
vn -0.1994 -0.4466502 -0.8722059
vn -0.1317091 -0.8293561 -0.5429744
vn -0.07605162 -0.9950129 -0.06454009
vn -0.04734113 -0.8992332 0.4349007
vn -0.05327052 -0.5676809 0.8215234
vn -0.09225107 -0.08919515 0.9917329
vn 0.9910616 0.1083994 -0.07775938
vn 0.9032918 -0.189059 0.3851242
vn 0.7474027 0.234216 0.6217169
vn 0.3789634 0.5688541 0.7299259
vn -0.1033029 0.7251891 0.6807565
vn -0.5701737 0.6613313 0.4873837
vn -0.8965514 0.3943912 0.2016215
vn -0.994983 -0.004104753 -0.09996038
vn -0.8390939 -0.4273798 -0.3365531
vn -0.4706546 -0.7620177 -0.4447619
vn 0.01161173 -0.9183527 -0.3955925
vn 0.4784826 -0.8544949 -0.2022197
vn 0.8048602 -0.5875548 0.08354257
vn 0.2572533 0.5419492 -0.8000699
vn 0.5096094 -0.1754155 0.8423347
vn 0.6146423 0.3091501 0.7257005
vn 0.5231544 0.7255816 0.4470355
vn 0.2596603 0.9622964 0.08100817
vn -0.1052374 0.955867 -0.2743053
vn -0.4737646 0.7080162 -0.5236987
vn -0.7471746 0.2851552 -0.6003472
vn -0.8522073 -0.1994104 -0.4837129
vn -0.7607195 -0.6158418 -0.2050481
vn -0.4972254 -0.8525566 0.1609794
vn -0.1323276 -0.8461272 0.5162928
vn 0.2361996 -0.5982763 0.7656862
vn 0.6665241 -0.3078915 -0.6789319
vn 0.2834603 -0.1308508 0.9500149
vn -0.1352008 0.1578881 0.9781575
vn -0.543449 0.3657854 0.7555556
vn -0.8318942 0.4371349 0.3418555
vn -0.923248 0.3528189 -0.1520925
vn -0.793032 0.1354296 -0.5939352
vn -0.4761377 -0.1567837 -0.8652813
vn -0.05747661 -0.4455225 -0.8934238
vn 0.3507714 -0.6534197 -0.670822
vn 0.6392166 -0.7247693 -0.2571218
vn 0.7305704 -0.6404532 0.2368261
vn 0.6003544 -0.4230639 0.6786689
vn 0.5405856 0.8070009 -0.2377329
vt 0.1812764 -0.05182285
vt 0.1753125 -0.03667581
vt 0.1738963 -0.03731301
vt 0.1077808 -0.07609942
vt 0.102312 -0.06076671
vt 0.1008759 -0.06135757
vt 0.007795109 -0.1108752
vt 0.004279272 -0.09498058
vt 0.002780733 -0.09538792
vt -0.09958701 -0.1226271
vt -0.09996993 -0.1063528
vt -0.1015189 -0.1064633
vt -0.1822377 -0.1033244
vt -0.1791466 -0.08734174
vt -0.1806836 -0.08711992
vt -0.215054 -0.08163823
vt -0.2092361 -0.06643452
vt -0.2107113 -0.06594934
vt -0.1961852 -0.08894859
vt -0.1889533 -0.07436439
vt -0.1903758 -0.07374164
vt -0.1328085 -0.1280761
vt -0.1256123 -0.1134742
vt -0.1270365 -0.1128549
vt -0.03017252 -0.1714656
vt -0.02465085 -0.1561518
vt -0.02613516 -0.1556954
vt 0.09380747 -0.1749954
vt 0.09593615 -0.1588563
vt 0.09438864 -0.1587269
vt 0.1887341 -0.1239714
vt 0.1868084 -0.1078068
vt 0.1852769 -0.1080639
vt 0.2149113 -0.06753228
vt 0.2100715 -0.05198955
vt 0.2086126 -0.05252143
vt 0.1338225 0.1221925
vt 0.1340881 0.1237225
vt 0.133553 0.1251803
vt 0.1323606 0.1261753
vt 0.1308306 0.1264408
vt 0.1293728 0.1259057
vt 0.1283778 0.1247134
vt 0.1281123 0.1231833
vt 0.1286474 0.1217255
vt 0.1298397 0.1207306
vt 0.1313698 0.1204651
vt 0.1328276 0.1210002
vt 0.1693902 0.009189352
vt 0.1673882 0.0253446
vt 0.165858 0.02508035
vt 0.2148802 -0.06321578
vt 0.2201435 -0.04781131
vt 0.2186517 -0.04737988
vt 0.1908265 -0.11026
vt 0.2008483 -0.09743181
vt 0.1995803 -0.09653523
vt 0.1373693 -0.08343539
vt 0.1494123 -0.07248245
vt 0.1483138 -0.07138477
vt 0.06987451 -0.004292041
vt 0.0822541 0.006278941
vt 0.0811905 0.007410453
vt -0.02303996 0.07934736
vt -0.01220424 0.09149589
vt -0.01341113 0.09247311
vt -0.1546874 0.0758027
vt -0.1499777 0.0913853
vt -0.1514839 0.09176318
vt -0.2134757 -0.0699334
vt -0.2189849 -0.05461516
vt -0.2204195 -0.05520982
vt -0.1598501 -0.1504339
vt -0.1701992 -0.1378683
vt -0.1713495 -0.1389116
vt -0.09027097 -0.1292877
vt -0.1016472 -0.1176438
vt -0.102705 -0.1187808
vt -0.01526433 -0.05815052
vt -0.0258489 -0.04578255
vt -0.02697924 -0.04684738
vt 0.07409333 0.008750848
vt 0.06630094 0.02304346
vt 0.0649745 0.02223591
vt -0.1942228 -0.1178476
vt -0.1957462 -0.1175467
vt -0.1972161 -0.1180478
vt -0.1982384 -0.1192167
vt -0.1985393 -0.1207402
vt -0.1980381 -0.12221
vt -0.1968692 -0.1232324
vt -0.1953457 -0.1235333
vt -0.1938759 -0.1230321
vt -0.1928536 -0.1218632
vt -0.1925527 -0.1203397
vt -0.1930538 -0.1188699
vt 0.2067231 -0.07446946
vt 0.1952668 -0.06290425
vt 0.194217 -0.06404849
vt 0.2141994 -0.08359229
vt 0.2053697 -0.06991615
vt 0.2041068 -0.07081972
vt 0.1693897 -0.1462705
vt 0.1665291 -0.130245
vt 0.1650151 -0.1305905
vt 0.05294548 -0.191289
vt 0.05821802 -0.1758877
vt 0.0567265 -0.1754554
vt -0.06070643 -0.1573226
vt -0.05018374 -0.1449019
vt -0.05141515 -0.1439558
vt -0.1340968 -0.09073941
vt -0.1214401 -0.08050185
vt -0.1224732 -0.07934242
vt -0.1820848 -0.03823302
vt -0.1689601 -0.02860268
vt -0.1699375 -0.0273959
vt -0.2126393 -0.03729884
vt -0.2006914 -0.02624229
vt -0.2017993 -0.02515412
vt -0.1871731 -0.1336822
vt -0.1810766 -0.118588
vt -0.1825426 -0.1180758
vt -0.01494141 -0.2243047
vt -0.02078652 -0.2091114
vt -0.02220763 -0.2097375
vt 0.1152879 -0.1778331
vt 0.1041376 -0.1659726
vt 0.1030582 -0.1670891
vt 0.1751152 -0.1138146
vt 0.162952 -0.1029953
vt 0.1619765 -0.1042035
vt -0.1212036 0.0512589
vt -0.1216525 0.0527455
vt -0.1227847 0.05380845
vt -0.1242966 0.05416295
vt -0.1257832 0.05371398
vt -0.1268461 0.05258188
vt -0.1272006 0.05106996
vt -0.1267516 0.04958337
vt -0.1256195 0.04852041
vt -0.1241076 0.04816592
vt -0.122621 0.04861488
vt -0.1215581 0.04974699
vt 0.2127822 -0.08445472
vt 0.2212773 -0.07056829
vt 0.2199155 -0.069822
vt 0.2035388 -0.05302638
vt 0.2118632 -0.03903697
vt 0.2104923 -0.03830743
vt 0.1415528 0.01777921
vt 0.1477886 0.03281635
vt 0.1463273 0.03334212
vt 0.020577 0.07022246
vt 0.02247387 0.08639039
vt 0.02092465 0.08649756
vt -0.1132058 0.04166954
vt -0.1163269 0.05764636
vt -0.1178351 0.05727627
vt -0.193609 -0.03287528
vt -0.1999063 -0.01786383
vt -0.201308 -0.01853218
vt -0.2147091 -0.08157985
vt -0.2219799 -0.06701498
vt -0.2233347 -0.06777406
vt -0.1894186 -0.07842926
vt -0.1958941 -0.0634938
vt -0.1972878 -0.06417877
vt -0.120805 -0.03983155
vt -0.124828 -0.02405769
vt -0.1263127 -0.0245128
vt -0.01511783 -0.01037294
vt -0.01526389 0.00590522
vt -0.01681431 0.005817228
vt 0.09689067 -0.0253929
vt 0.1009081 -0.009617591
vt 0.09938662 -0.009306567
vt 0.1771888 -0.06603121
vt 0.1842471 -0.05136216
vt 0.1828172 -0.05075635
vt -0.01261539 -0.2264202
vt -0.01278904 -0.2279634
vt -0.01216785 -0.2293866
vt -0.01091825 -0.2303086
vt -0.009375071 -0.2304823
vt -0.007951817 -0.2298611
vt -0.007029837 -0.2286115
vt -0.006856182 -0.2270683
vt -0.007477377 -0.225645
vt -0.008726975 -0.2247231
vt -0.01027015 -0.2245494
vt -0.01169341 -0.2251706
o group502527523
g mesh502527523
usemtl mat8
f 3/3/1 2/2/1 1/1/1
f 2/6/2 4/5/2 1/4/2
f 4/9/3 5/8/3 1/7/3
f 5/12/4 6/11/4 1/10/4
f 6/15/5 7/14/5 1/13/5
f 7/18/6 8/17/6 1/16/6
f 8/21/7 9/20/7 1/19/7
f 9/24/8 10/23/8 1/22/8
f 10/27/9 11/26/9 1/25/9
f 11/30/10 12/29/10 1/28/10
f 12/33/11 13/32/11 1/31/11
f 13/36/12 3/35/12 1/34/12
f 13/48/13 12/47/13 11/46/13 10/45/13 9/44/13 8/43/13 7/42/13 6/41/13 5/40/13 4/39/13 2/38/13 3/37/13
o group275140169
g mesh275140169
usemtl mat8
f 16/51/14 15/50/14 14/49/14
f 15/54/15 17/53/15 14/52/15
f 17/57/16 18/56/16 14/55/16
f 18/60/17 19/59/17 14/58/17
f 19/63/18 20/62/18 14/61/18
f 20/66/19 21/65/19 14/64/19
f 21/69/20 22/68/20 14/67/20
f 22/72/21 23/71/21 14/70/21
f 23/75/22 24/74/22 14/73/22
f 24/78/23 25/77/23 14/76/23
f 25/81/24 26/80/24 14/79/24
f 26/84/25 16/83/25 14/82/25
f 26/96/26 25/95/26 24/94/26 23/93/26 22/92/26 21/91/26 20/90/26 19/89/26 18/88/26 17/87/26 15/86/26 16/85/26
o group2140846923
g mesh2140846923
usemtl mat8
f 29/99/27 28/98/27 27/97/27
f 28/102/28 30/101/28 27/100/28
f 30/105/29 31/104/29 27/103/29
f 31/108/30 32/107/30 27/106/30
f 32/111/31 33/110/31 27/109/31
f 33/114/32 34/113/32 27/112/32
f 34/117/33 35/116/33 27/115/33
f 35/120/34 36/119/34 27/118/34
f 36/123/35 37/122/35 27/121/35
f 37/126/36 38/125/36 27/124/36
f 38/129/37 39/128/37 27/127/37
f 39/132/38 29/131/38 27/130/38
f 39/144/39 38/143/39 37/142/39 36/141/39 35/140/39 34/139/39 33/138/39 32/137/39 31/136/39 30/135/39 28/134/39 29/133/39
o group1742494594
g mesh1742494594
usemtl mat8
f 42/147/40 41/146/40 40/145/40
f 41/150/41 43/149/41 40/148/41
f 43/153/42 44/152/42 40/151/42
f 44/156/43 45/155/43 40/154/43
f 45/159/44 46/158/44 40/157/44
f 46/162/45 47/161/45 40/160/45
f 47/165/46 48/164/46 40/163/46
f 48/168/47 49/167/47 40/166/47
f 49/171/48 50/170/48 40/169/48
f 50/174/49 51/173/49 40/172/49
f 51/177/50 52/176/50 40/175/50
f 52/180/51 42/179/51 40/178/51
f 52/192/52 51/191/52 50/190/52 49/189/52 48/188/52 47/187/52 46/186/52 45/185/52 44/184/52 43/183/52 41/182/52 42/181/52
