mtllib materials.mtl
v -0.02 0.01999998 0.01333332
v -0.02 0.01732051 0.00333333
v 0.02 0.01732051 0.00333333
v 0.02 0.01999998 0.01333332
v -0.02 0.00999999 -0.003987193
v 0.02 0.00999999 -0.003987193
v -0.02 0 -0.00666666
v 0.02 0 -0.00666666
v -0.02 -0.00999999 -0.003987193
v 0.02 -0.00999999 -0.003987193
v -0.02 -0.01732051 0.00333333
v 0.02 -0.01732051 0.00333333
v -0.02 -0.01999998 0.01333332
v 0.02 -0.01999998 0.01333332
v -0.02 -0.01732051 0.02333331
v 0.02 -0.01732051 0.02333331
v -0.02 -0.00999999 0.03065383
v 0.02 -0.00999999 0.03065383
v -0.02 0 0.0333333
v 0.02 0 0.0333333
v -0.02 0.00999999 0.03065383
v 0.02 0.00999999 0.03065383
v -0.02 0.01732051 0.02333331
v 0.02 0.01732051 0.02333331
v 0.01000001 0 0.01333332
v 0.01000001 0.01999998 0.01333332
v 0.01000001 0.01999998 -0.02666664
v -0.01000001 0 0.01333332
v -0.01000001 0.01999998 -0.02666664
v -0.01000001 0.01999998 0.01333332
v 0.00999999 -0.01999998 0.01333332
v 0.00999999 0 0.01333332
v 0.00999999 -0.01999998 -0.02666664
v -0.01000002 -0.01999998 0.01333332
v -0.01000002 -0.01999998 -0.02666664
v -0.01000002 0 0.01333332
vn 3.192817E-08 0.9659259 -0.2588191
vn 9.220574E-08 0.7071067 -0.7071069
vn 9.967987E-08 0.258819 -0.9659258
vn 1.296745E-07 -0.258819 -0.9659258
vn 9.270671E-08 -0.7071069 -0.7071067
vn 3.017926E-08 -0.9659259 -0.2588189
vn -3.097214E-08 -0.9659258 0.2588193
vn -8.742467E-08 -0.7071067 0.7071069
vn -1.302821E-07 -0.2588191 0.9659258
vn -1.087882E-07 0.2588191 0.9659258
vn -8.340967E-08 0.7071068 0.7071068
vn -3.122973E-08 0.9659259 0.2588187
vn -1 -7.576698E-08 -1.788139E-07
vn 1 7.98221E-08 1.788139E-07
vn 1 1.46272E-14 1.227018E-07
vn -1 1.416923E-14 1.188601E-07
vn 0 1.2893E-07 1
vn -1.93948E-15 -0.8944272 -0.4472136
vn 1.554136E-08 1 -2.356247E-07
vn 1 -1.158798E-15 1.651249E-07
vn -1 2.284285E-14 8.953381E-08
vn -1.748456E-07 1.2893E-07 1
vn 3.376295E-09 -1 -1.834707E-07
vn 5.736831E-08 0.8944271 -0.4472136
vt -0.1320494 -0.01107461
vt -0.1310374 -0.01085645
vt -0.1318803 -0.006946271
vt -0.1328923 -0.007164428
vt -0.1950903 0.03679362
vt -0.1940603 0.03668957
vt -0.1936583 0.04066932
vt -0.1946883 0.04077337
vt -0.190659 0.09270795
vt -0.1896946 0.09233133
vt -0.1882395 0.09605729
vt -0.1892039 0.09643389
vt -0.1374463 0.09869972
vt -0.136549 0.0981834
vt -0.134554 0.1016504
vt -0.1354514 0.1021667
vt -0.05996317 0.0562219
vt -0.05907782 0.0556853
vt -0.05700453 0.05910604
vt -0.05788989 0.05964265
vt 0.03342042 0.002961783
vt 0.03435578 0.002518062
vt 0.03607019 0.006132035
vt 0.03513483 0.006575756
vt 0.1310374 -0.01085645
vt 0.1320494 -0.0110746
vt 0.1328923 -0.00716442
vt 0.1318803 -0.006946263
vt 0.1940603 0.03668957
vt 0.1950903 0.03679363
vt 0.1946883 0.04077337
vt 0.1936583 0.04066932
vt 0.1896946 0.09233134
vt 0.190659 0.09270795
vt 0.1892039 0.0964339
vt 0.1882395 0.0960573
vt 0.136549 0.0981834
vt 0.1374463 0.09869972
vt 0.1354513 0.1021667
vt 0.134554 0.1016504
vt 0.05907784 0.05568532
vt 0.0599632 0.05622192
vt 0.05788992 0.05964267
vt 0.05700456 0.05910606
vt -0.03435582 0.002518048
vt -0.03342045 0.002961769
vt -0.03513486 0.006575742
vt -0.03607022 0.006132021
vt -0.1832831 0.1120771
vt -0.1834532 0.1110559
vt -0.1830901 0.1100865
vt -0.1822908 0.1094285
vt -0.1812696 0.1092583
vt -0.1803001 0.1096215
vt -0.1796421 0.1104207
vt -0.1794719 0.1114419
vt -0.1798351 0.1124114
vt -0.1806344 0.1130694
vt -0.1816556 0.1132396
vt -0.1826251 0.1128764
vt 0.1826251 0.1128764
vt 0.1816556 0.1132396
vt 0.1806344 0.1130694
vt 0.1798351 0.1124114
vt 0.1794719 0.1114419
vt 0.1796421 0.1104207
vt 0.1803001 0.1096215
vt 0.1812696 0.1092583
vt 0.1822908 0.1094285
vt 0.1830901 0.1100865
vt 0.1834532 0.1110559
vt 0.1832831 0.1120771
vt 0.1814626 0.111249
vt 0.182625 0.1128764
vt 0.1793701 0.1152014
vt -0.1814626 0.111249
vt -0.1793701 0.1152014
vt -0.182625 0.1128765
vt 0.1663634 0.1055424
vt 0.1672579 0.1037536
vt 0.1690467 0.104648
vt 0.1681523 0.1064368
vt -0.002245747 0.02397826
vt -0.006175785 0.02611245
vt -0.007130224 0.02435488
vt -0.003200186 0.02222069
vt -0.08489135 -0.009081094
vt -0.08421867 -0.01096458
vt -0.08045171 -0.009619234
vt -0.08112438 -0.007735749
vt 0.1803001 0.1096215
vt 0.1814626 0.1112489
vt 0.1770452 0.1119464
vt -0.1803001 0.1096215
vt -0.1770452 0.1119465
vt -0.1814626 0.111249
vt 0.1645746 0.104648
vt 0.165469 0.1028591
vt 0.1672579 0.1037536
vt 0.1663634 0.1055424
vt 0.08489127 -0.009081079
vt 0.08112431 -0.007735734
vt 0.08045163 -0.009619219
vt 0.0842186 -0.01096456
vt -0.1630609 0.004465253
vt -0.1628701 0.002474373
vt -0.1584184 0.002900989
vt -0.1586092 0.00489187
o group1028701814
g mesh1028701814
usemtl mat17
f 4/4/1 3/3/1 2/2/1 1/1/1
f 3/8/2 6/7/2 5/6/2 2/5/2
f 6/12/3 8/11/3 7/10/3 5/9/3
f 8/16/4 10/15/4 9/14/4 7/13/4
f 10/20/5 12/19/5 11/18/5 9/17/5
f 12/24/6 14/23/6 13/22/6 11/21/6
f 14/28/7 16/27/7 15/26/7 13/25/7
f 16/32/8 18/31/8 17/30/8 15/29/8
f 18/36/9 20/35/9 19/34/9 17/33/9
f 20/40/10 22/39/10 21/38/10 19/37/10
f 22/44/11 24/43/11 23/42/11 21/41/11
f 24/48/12 4/47/12 1/46/12 23/45/12
f 1/60/13 2/59/13 5/58/13 7/57/13 9/56/13 11/55/13 13/54/13 15/53/13 17/52/13 19/51/13 21/50/13 23/49/13
f 24/72/14 22/71/14 20/70/14 18/69/14 16/68/14 14/67/14 12/66/14 10/65/14 8/64/14 6/63/14 3/62/14 4/61/14
o group706640210
g mesh706640210
usemtl mat17
f 27/75/15 26/74/15 25/73/15
f 30/78/16 29/77/16 28/76/16
f 26/82/17 30/81/17 28/80/17 25/79/17
f 28/86/18 29/85/18 27/84/18 25/83/18
f 27/90/19 29/89/19 30/88/19 26/87/19
o group2113376091
g mesh2113376091
usemtl mat17
f 33/93/20 32/92/20 31/91/20
f 36/96/21 35/95/21 34/94/21
f 32/100/22 36/99/22 34/98/22 31/97/22
f 34/104/23 35/103/23 33/102/23 31/101/23
f 33/108/24 35/107/24 36/106/24 32/105/24
