mtllib materials.mtl
v -0.00999999 0.003333092 0.004999995
v -0.004999995 0.001993418 0.004999995
v -0.004999995 0.001993418 0.015
v -0.00999999 0.003333092 0.015
v -0.001339734 -0.001666784 0.004999995
v -0.001339734 -0.001666784 0.015
v 0 -0.006666899 0.004999995
v 0 -0.006666899 0.015
v -0.001339734 -0.01166689 0.004999995
v -0.001339734 -0.01166689 0.015
v -0.004999995 -0.0153271 0.004999995
v -0.004999995 -0.0153271 0.015
v -0.00999999 -0.01666689 0.004999995
v -0.00999999 -0.01666689 0.015
v -0.01499999 -0.0153271 0.004999995
v -0.01499999 -0.0153271 0.015
v -0.01866025 -0.01166689 0.004999995
v -0.01866025 -0.01166689 0.015
v -0.01999998 -0.006666899 0.004999995
v -0.01999998 -0.006666899 0.015
v -0.01866025 -0.001666784 0.004999995
v -0.01866025 -0.001666784 0.015
v -0.01499999 0.001993418 0.004999995
v -0.01499999 0.001993418 0.015
v 0.01000005 0.003333092 0.004999995
v 0.01500005 0.001993418 0.004999995
v 0.01500005 0.001993418 0.015
v 0.01000005 0.003333092 0.015
v 0.01866031 -0.001666784 0.004999995
v 0.01866031 -0.001666784 0.015
v 0.02000004 -0.006666899 0.004999995
v 0.02000004 -0.006666899 0.015
v 0.01866031 -0.01166689 0.004999995
v 0.01866031 -0.01166689 0.015
v 0.01500005 -0.0153271 0.004999995
v 0.01500005 -0.0153271 0.015
v 0.01000005 -0.01666689 0.004999995
v 0.01000005 -0.01666689 0.015
v 0.005000055 -0.0153271 0.004999995
v 0.005000055 -0.0153271 0.015
v 0.001339793 -0.01166689 0.004999995
v 0.001339793 -0.01166689 0.015
v 5.960464E-08 -0.006666899 0.004999995
v 5.960464E-08 -0.006666899 0.015
v 0.001339793 -0.001666784 0.004999995
v 0.001339793 -0.001666784 0.015
v 0.005000055 0.001993418 0.004999995
v 0.005000055 0.001993418 0.015
v 0 0.02333307 0.004999995
v 0.004999995 0.0219934 0.004999995
v 0.004999995 0.0219934 0.015
v 0 0.02333307 0.015
v 0.008660257 0.0183332 0.004999995
v 0.008660257 0.0183332 0.015
v 0.00999999 0.01333308 0.004999995
v 0.00999999 0.01333308 0.015
v 0.008660257 0.008332968 0.004999995
v 0.008660257 0.008332968 0.015
v 0.004999995 0.004672766 0.004999995
v 0.004999995 0.004672766 0.015
v 0 0.003333092 0.004999995
v 0 0.003333092 0.015
v -0.004999995 0.004672766 0.004999995
v -0.004999995 0.004672766 0.015
v -0.008660257 0.008332968 0.004999995
v -0.008660257 0.008332968 0.015
v -0.00999999 0.01333308 0.004999995
v -0.00999999 0.01333308 0.015
v -0.008660257 0.0183332 0.004999995
v -0.008660257 0.0183332 0.015
v -0.004999995 0.0219934 0.004999995
v -0.004999995 0.0219934 0.015
v 0.00999999 0.003333092 -0.02500001
v 0.01499999 0.001993418 -0.02500001
v 0.01499999 0.001993418 0.00500001
v 0.00999999 0.003333092 0.00500001
v 0.01866025 -0.001666784 -0.02500001
v 0.01866025 -0.001666784 0.00500001
v 0.01999998 -0.006666899 -0.02500001
v 0.01999998 -0.006666899 0.00500001
v 0.01866025 -0.01166689 -0.02500001
v 0.01866025 -0.01166689 0.00500001
v 0.01499999 -0.0153271 -0.02500001
v 0.01499999 -0.0153271 0.00500001
v 0.00999999 -0.01666689 -0.02500001
v 0.00999999 -0.01666689 0.00500001
v 0.004999995 -0.0153271 -0.02500001
v 0.004999995 -0.0153271 0.00500001
v 0.001339734 -0.01166689 -0.02500001
v 0.001339734 -0.01166689 0.00500001
v 0 -0.006666899 -0.02500001
v 0 -0.006666899 0.00500001
v 0.001339734 -0.001666784 -0.02500001
v 0.001339734 -0.001666784 0.00500001
v 0.004999995 0.001993418 -0.02500001
v 0.004999995 0.001993418 0.00500001
v -0.00999999 0.003333092 -0.02500002
v -0.004999995 0.001993418 -0.02500002
v -0.004999995 0.001993418 0.004999995
v -0.00999999 0.003333092 0.004999995
v -0.001339734 -0.001666784 -0.02500002
v -0.001339734 -0.001666784 0.004999995
v 0 -0.006666899 -0.02500002
v 0 -0.006666899 0.004999995
v -0.001339734 -0.01166689 -0.02500002
v -0.001339734 -0.01166689 0.004999995
v -0.004999995 -0.0153271 -0.02500002
v -0.004999995 -0.0153271 0.004999995
v -0.00999999 -0.01666689 -0.02500002
v -0.00999999 -0.01666689 0.004999995
v -0.01499999 -0.0153271 -0.02500002
v -0.01499999 -0.0153271 0.004999995
v -0.01866025 -0.01166689 -0.02500002
v -0.01866025 -0.01166689 0.004999995
v -0.01999998 -0.006666899 -0.02500002
v -0.01999998 -0.006666899 0.004999995
v -0.01866025 -0.001666784 -0.02500002
v -0.01866025 -0.001666784 0.004999995
v -0.01499999 0.001993418 -0.02500002
v -0.01499999 0.001993418 0.004999995
v 0 0.02333307 -0.02500002
v 0.004999995 0.0219934 -0.02500002
v 0.004999995 0.0219934 0.004999995
v 0 0.02333307 0.004999995
v 0.008660257 0.0183332 -0.02500002
v 0.008660257 0.0183332 0.004999995
v 0.00999999 0.01333308 -0.02500002
v 0.00999999 0.01333308 0.004999995
v 0.008660257 0.008332968 -0.02500002
v 0.008660257 0.008332968 0.004999995
v 0.004999995 0.004672766 -0.02500002
v 0.004999995 0.004672766 0.004999995
v 0 0.003333092 -0.02500002
v 0 0.003333092 0.004999995
v -0.004999995 0.004672766 -0.02500002
v -0.004999995 0.004672766 0.004999995
v -0.008660257 0.008332968 -0.02500002
v -0.008660257 0.008332968 0.004999995
v -0.00999999 0.01333308 -0.02500002
v -0.00999999 0.01333308 0.004999995
v -0.008660257 0.0183332 -0.02500002
v -0.008660257 0.0183332 0.004999995
v -0.004999995 0.0219934 -0.02500002
v -0.004999995 0.0219934 0.004999995
vn 0.2588064 0.9659292 5.881983E-06
vn 0.707101 0.7071126 8.302862E-06
vn 0.9659279 0.2588113 -9.495044E-07
vn 0.9659263 -0.258817 1.28173E-07
vn 0.7071011 -0.7071125 -4.189998E-06
vn 0.2588277 -0.9659235 -6.721276E-07
vn -0.2588278 -0.9659235 -5.272873E-06
vn -0.7071011 -0.7071126 2.865706E-08
vn -0.9659263 -0.258817 -9.517942E-07
vn -0.965928 0.2588113 3.240649E-06
vn -0.707101 0.7071126 4.105767E-06
vn -0.2588064 0.9659292 -9.275257E-07
vn 0 -1.192093E-07 -1
vn 0 1.192093E-07 1
vn 0.2588064 0.9659292 5.881983E-06
vn 0.707101 0.7071126 8.302862E-06
vn 0.9659279 0.2588113 -9.495044E-07
vn 0.9659263 -0.258817 1.28173E-07
vn 0.7071011 -0.7071125 -4.189998E-06
vn 0.2588277 -0.9659235 -6.721276E-07
vn -0.2588278 -0.9659235 -5.272873E-06
vn -0.7071011 -0.7071126 2.865706E-08
vn -0.9659263 -0.258817 -9.517942E-07
vn -0.965928 0.2588113 3.240649E-06
vn -0.707101 0.7071126 4.105767E-06
vn -0.2588064 0.9659292 -9.275257E-07
vn 0 -1.192093E-07 -1
vn 0 1.192093E-07 1
vn 0.2588064 0.9659292 2.949186E-06
vn 0.707101 0.7071126 4.175885E-06
vn 0.9659279 0.2588113 -4.128452E-07
vn 0.9659279 -0.2588113 1.739907E-06
vn 0.7071012 -0.7071124 2.146935E-06
vn 0.2588063 -0.9659293 -2.992787E-07
vn -0.2588063 -0.9659293 3.112919E-06
vn -0.7071011 -0.7071126 4.220105E-06
vn -0.9659279 -0.2588113 -5.32445E-07
vn -0.9659279 0.2588113 1.560916E-06
vn -0.7071011 0.7071126 1.970439E-06
vn -0.2588063 0.9659293 -4.534681E-07
vn 1.748456E-07 -1.192093E-07 -1
vn -1.748456E-07 1.192093E-07 1
vn 0.2588064 0.9659292 2.949186E-06
vn 0.707101 0.7071126 4.175885E-06
vn 0.9659279 0.2588113 -4.128452E-07
vn 0.9659263 -0.258817 1.23492E-07
vn 0.7071011 -0.7071125 -2.056531E-06
vn 0.2588277 -0.9659235 -3.024269E-07
vn -0.2588278 -0.9659235 -2.641297E-06
vn -0.7071011 -0.7071126 -1.012485E-08
vn -0.9659263 -0.258817 -4.811709E-07
vn -0.9659279 0.2588113 1.560916E-06
vn -0.7071011 0.7071126 1.970439E-06
vn -0.2588063 0.9659293 -4.534681E-07
vn 1.748456E-07 -1.192093E-07 -1
vn -1.748456E-07 1.192093E-07 1
vn 0.2588062 0.9659293 1.972566E-06
vn 0.7071011 0.7071125 2.770199E-06
vn 0.9659279 0.2588113 -2.888717E-07
vn 0.9659263 -0.258817 5.792417E-08
vn 0.707101 -0.7071126 -1.381292E-06
vn 0.2588278 -0.9659235 -2.072501E-07
vn -0.2588279 -0.9659235 -1.740949E-06
vn -0.7071012 -0.7071124 1.875533E-08
vn -0.9659263 -0.258817 -2.980412E-07
vn -0.9659279 0.2588113 1.065016E-06
vn -0.7071012 0.7071124 1.376642E-06
vn -0.2588064 0.9659293 -2.959811E-07
vn 0 -1.192093E-07 -1
vn 0 1.192093E-07 1
vn 0.2588062 0.9659293 1.98649E-06
vn 0.7071011 0.7071126 2.794225E-06
vn 0.9659279 0.2588113 -2.343009E-07
vn 0.965928 -0.2588113 1.143248E-06
vn 0.7071012 -0.7071125 1.445041E-06
vn 0.2588063 -0.9659293 -1.921822E-07
vn -0.2588063 -0.9659293 2.087125E-06
vn -0.707101 -0.7071126 2.791457E-06
vn -0.965928 -0.2588113 -3.399384E-07
vn -0.9659279 0.2588113 1.010448E-06
vn -0.7071011 0.7071125 1.329193E-06
vn -0.2588063 0.9659293 -3.089461E-07
vn 1.748456E-07 -1.192093E-07 -1
vn -1.748456E-07 1.192093E-07 1
vt 0.02766251 -0.1182722
vt 0.02745925 -0.1177961
vt 0.02653957 -0.1181888
vt 0.02674282 -0.1186648
vt 0.12109 -0.1494215
vt 0.1207221 -0.1490573
vt 0.1200186 -0.149768
vt 0.1203865 -0.1501322
vt 0.1903551 0.09467892
vt 0.1899166 0.09440373
vt 0.1904482 0.09355673
vt 0.1908867 0.09383191
vt 0.09497889 0.1488608
vt 0.09475434 0.1483944
vt 0.09565534 0.1479606
vt 0.0958799 0.148427
vt 0.04931733 0.08066063
vt 0.04915214 0.08017006
vt 0.05009986 0.07985096
vt 0.05026504 0.08034153
vt 0.01513244 -0.02133215
vt 0.01497198 -0.02182429
vt 0.01592271 -0.02213429
vt 0.01608318 -0.02164215
vt -0.02746145 -0.1177995
vt -0.02766471 -0.1182756
vt -0.02674502 -0.1186683
vt -0.02654177 -0.1181922
vt -0.1207198 -0.1490594
vt -0.1210876 -0.1494236
vt -0.1203841 -0.1501342
vt -0.1200162 -0.14977
vt -0.1899182 0.09440076
vt -0.1903566 0.09467593
vt -0.1908882 0.09382892
vt -0.1904498 0.09355376
vt -0.09475421 0.1483953
vt -0.09497877 0.1488617
vt -0.09587978 0.1484278
vt -0.09565522 0.1479615
vt -0.04915214 0.08017004
vt -0.04931733 0.08066061
vt -0.05026504 0.0803415
vt -0.05009986 0.07985093
vt -0.01497084 -0.02182883
vt -0.0151313 -0.0213367
vt -0.01608204 -0.02164669
vt -0.01592157 -0.02213883
vt -0.2111886 0.02677291
vt -0.2110249 0.02628184
vt -0.2106376 0.0259384
vt -0.2101305 0.02583462
vt -0.2096394 0.02599831
vt -0.209296 0.02638561
vt -0.2091922 0.02689274
vt -0.2093559 0.02738381
vt -0.2097432 0.02772725
vt -0.2102503 0.02783103
vt -0.2107414 0.02766733
vt -0.2110848 0.02728004
vt 0.2110848 0.02728004
vt 0.2107414 0.02766733
vt 0.2102503 0.02783103
vt 0.2097432 0.02772725
vt 0.2093559 0.02738381
vt 0.2091922 0.02689274
vt 0.209296 0.02638561
vt 0.2096394 0.02599831
vt 0.2101305 0.02583462
vt 0.2106376 0.0259384
vt 0.2110249 0.02628184
vt 0.2111886 0.02677291
vt 0.02690396 -0.1164955
vt 0.02670071 -0.1160194
vt 0.02578102 -0.116412
vt 0.02598427 -0.1168881
vt 0.120085 -0.1484265
vt 0.1197171 -0.1480624
vt 0.1190136 -0.148773
vt 0.1193814 -0.1491372
vt 0.1899166 0.09440374
vt 0.1894782 0.09412856
vt 0.1900098 0.09328157
vt 0.1904483 0.09355675
vt 0.09520344 0.1493272
vt 0.09497889 0.1488608
vt 0.0958799 0.148427
vt 0.09610446 0.1488934
vt 0.04976863 0.08200092
vt 0.04960344 0.08151035
vt 0.05055116 0.08119123
vt 0.05071635 0.08168181
vt 0.01573131 -0.01949547
vt 0.01557084 -0.01998761
vt 0.01652158 -0.0202976
vt 0.01668205 -0.01980546
vt -0.0267029 -0.1160228
vt -0.02690615 -0.1164989
vt -0.02598647 -0.1168916
vt -0.02578321 -0.1164155
vt -0.1197147 -0.1480644
vt -0.1200826 -0.1484286
vt -0.1193791 -0.1491393
vt -0.1190112 -0.1487751
vt -0.1894798 0.09412559
vt -0.1899182 0.09440076
vt -0.1904498 0.09355376
vt -0.1900114 0.09327859
vt -0.09497876 0.1488616
vt -0.09520333 0.149328
vt -0.09610434 0.1488942
vt -0.09587978 0.1484278
vt -0.04960344 0.08151032
vt -0.04976863 0.0820009
vt -0.05071635 0.08168178
vt -0.05055116 0.08119121
vt -0.0155697 -0.01999214
vt -0.01573017 -0.0195
vt -0.01668091 -0.01981
vt -0.01652044 -0.02030213
vt -0.2102942 0.02856177
vt -0.2101305 0.02807069
vt -0.2097432 0.02772725
vt -0.2092361 0.02762347
vt -0.208745 0.02778717
vt -0.2084015 0.02817447
vt -0.2082978 0.0286816
vt -0.2084614 0.02917267
vt -0.2088487 0.02951611
vt -0.2093559 0.02961989
vt -0.2098469 0.02945619
vt -0.2101904 0.02906889
vt 0.2101904 0.02906889
vt 0.2098469 0.02945619
vt 0.2093559 0.02961989
vt 0.2088487 0.02951611
vt 0.2084614 0.02917267
vt 0.2082978 0.0286816
vt 0.2084015 0.02817447
vt 0.208745 0.02778717
vt 0.2092361 0.02762347
vt 0.2097432 0.02772725
vt 0.2101305 0.02807069
vt 0.2102942 0.02856177
vt 0.02748575 -0.1178601
vt 0.0272825 -0.1173841
vt 0.02636281 -0.1177767
vt 0.02656606 -0.1182528
vt 0.1215913 -0.14992
vt 0.1212235 -0.1495558
vt 0.12052 -0.1502665
vt 0.1208878 -0.1506306
vt 0.1917722 0.09556816
vt 0.1913338 0.09529297
vt 0.1918654 0.09444598
vt 0.1923038 0.09472115
vt 0.09593032 0.1508347
vt 0.09570576 0.1503683
vt 0.09660675 0.1499345
vt 0.09683131 0.1504009
vt 0.04999556 0.08267057
vt 0.04983038 0.08218
vt 0.0507781 0.08186089
vt 0.05094328 0.08235146
vt 0.01559094 -0.01992617
vt 0.01543047 -0.0204183
vt 0.01638121 -0.0207283
vt 0.01654168 -0.02023617
vt -0.02728098 -0.1173846
vt -0.02748422 -0.1178607
vt -0.02656453 -0.1182533
vt -0.02636129 -0.1177773
vt -0.1212211 -0.1495579
vt -0.1215889 -0.149922
vt -0.1208854 -0.1506327
vt -0.1205175 -0.1502685
vt -0.1913339 0.0952927
vt -0.1917723 0.09556789
vt -0.1923039 0.09472089
vt -0.1918655 0.09444571
vt -0.09570494 0.1503688
vt -0.0959295 0.1508352
vt -0.09683051 0.1504014
vt -0.09660595 0.149935
vt -0.04982952 0.08218028
vt -0.0499947 0.08267085
vt -0.05094242 0.08235174
vt -0.05077724 0.08186117
vt -0.01543062 -0.02041837
vt -0.01559109 -0.01992623
vt -0.01654183 -0.02023623
vt -0.01638136 -0.02072836
vt -0.2125302 0.02856177
vt -0.2123666 0.0280707
vt -0.2119792 0.02772726
vt -0.2114721 0.02762347
vt -0.210981 0.02778717
vt -0.2106376 0.02817447
vt -0.2105338 0.02868159
vt -0.2106975 0.02917267
vt -0.2110848 0.02951611
vt -0.211592 0.02961989
vt -0.212083 0.0294562
vt -0.2124265 0.0290689
vt 0.2124265 0.0290689
vt 0.212083 0.0294562
vt 0.211592 0.02961989
vt 0.2110848 0.02951611
vt 0.2106975 0.02917267
vt 0.2105338 0.02868159
vt 0.2106376 0.02817447
vt 0.210981 0.02778717
vt 0.2114721 0.02762347
vt 0.2119792 0.02772726
vt 0.2123666 0.0280707
vt 0.2125302 0.02856177
vt 0.02966229 -0.1153178
vt 0.02945904 -0.1148417
vt 0.02669998 -0.1160197
vt 0.02690323 -0.1164957
vt 0.1221944 -0.1462956
vt 0.1218265 -0.1459314
vt 0.1197159 -0.1480634
vt 0.1200838 -0.1484276
vt 0.1883219 0.09694459
vt 0.1878835 0.09666941
vt 0.1894783 0.09412841
vt 0.1899167 0.0944036
vt 0.09250043 0.1506286
vt 0.09227587 0.1501622
vt 0.09497889 0.1488608
vt 0.09520344 0.1493272
vt 0.04692591 0.08295809
vt 0.04676072 0.08246751
vt 0.04960388 0.08151018
vt 0.04976906 0.08200075
vt 0.01287917 -0.01856549
vt 0.01271871 -0.01905764
vt 0.01557092 -0.01998762
vt 0.01573139 -0.01949548
vt -0.02946131 -0.1148451
vt -0.02966456 -0.1153212
vt -0.0269055 -0.1164991
vt -0.02670225 -0.1160231
vt -0.1218254 -0.1459324
vt -0.1221932 -0.1462966
vt -0.1200826 -0.1484286
vt -0.1197148 -0.1480644
vt -0.1878849 0.09666674
vt -0.1883234 0.0969419
vt -0.1899181 0.09440089
vt -0.1894797 0.09412572
vt -0.09227615 0.1501628
vt -0.09250071 0.1506292
vt -0.09520373 0.1493278
vt -0.09497917 0.1488614
vt -0.04676073 0.08246749
vt -0.04692591 0.08295806
vt -0.04976907 0.08200072
vt -0.04960388 0.08151016
vt -0.01271739 -0.01906215
vt -0.01287785 -0.01857001
vt -0.01573006 -0.0195
vt -0.0155696 -0.01999214
vt -0.2102942 0.02856177
vt -0.2101305 0.0280707
vt -0.2097432 0.02772726
vt -0.2092361 0.02762348
vt -0.208745 0.02778717
vt -0.2084015 0.02817447
vt -0.2082978 0.0286816
vt -0.2084614 0.02917267
vt -0.2088487 0.02951611
vt -0.2093559 0.02961989
vt -0.2098469 0.0294562
vt -0.2101904 0.0290689
vt 0.2101904 0.0290689
vt 0.2098469 0.0294562
vt 0.2093559 0.02961989
vt 0.2088487 0.02951611
vt 0.2084614 0.02917267
vt 0.2082978 0.0286816
vt 0.2084015 0.02817447
vt 0.208745 0.02778717
vt 0.2092361 0.02762348
vt 0.2097432 0.02772726
vt 0.2101305 0.0280707
vt 0.2102942 0.02856177
vt 0.03042058 -0.1170945
vt 0.03021733 -0.1166185
vt 0.02745826 -0.1177964
vt 0.02766151 -0.1182725
vt 0.1231991 -0.1472909
vt 0.1228312 -0.1469267
vt 0.1207206 -0.1490587
vt 0.1210885 -0.1494229
vt 0.1887604 0.09721972
vt 0.1883219 0.09694454
vt 0.1899167 0.09440355
vt 0.1903552 0.09467873
vt 0.09227586 0.1501622
vt 0.0920513 0.1496958
vt 0.09475432 0.1483944
vt 0.09497888 0.1488608
vt 0.04647474 0.08161774
vt 0.04630956 0.08112717
vt 0.04915271 0.08016983
vt 0.04931789 0.08066041
vt 0.01228033 -0.02040217
vt 0.01211987 -0.02089431
vt 0.01497208 -0.02182429
vt 0.01513255 -0.02133215
vt -0.03021965 -0.1166219
vt -0.03042291 -0.117098
vt -0.02766385 -0.1182759
vt -0.02746059 -0.1177999
vt -0.1228304 -0.1469274
vt -0.1231983 -0.1472916
vt -0.1210877 -0.1494235
vt -0.1207198 -0.1490594
vt -0.1883233 0.09694196
vt -0.1887618 0.09721713
vt -0.1903565 0.09467611
vt -0.1899181 0.09440094
vt -0.09205173 0.1496964
vt -0.09227628 0.1501628
vt -0.0949793 0.1488614
vt -0.09475474 0.148395
vt -0.04630957 0.0811272
vt -0.04647475 0.08161777
vt -0.0493179 0.08066044
vt -0.04915272 0.08016987
vt -0.01211849 -0.02089881
vt -0.01227895 -0.02040667
vt -0.01513117 -0.02133666
vt -0.0149707 -0.02182879
vt -0.2111886 0.02677291
vt -0.2110249 0.02628184
vt -0.2106376 0.0259384
vt -0.2101305 0.02583462
vt -0.2096394 0.02599831
vt -0.209296 0.02638561
vt -0.2091922 0.02689274
vt -0.2093559 0.02738381
vt -0.2097432 0.02772725
vt -0.2102503 0.02783103
vt -0.2107414 0.02766733
vt -0.2110848 0.02728004
vt 0.2110848 0.02728004
vt 0.2107414 0.02766733
vt 0.2102503 0.02783103
vt 0.2097432 0.02772725
vt 0.2093559 0.02738381
vt 0.2091922 0.02689274
vt 0.209296 0.02638561
vt 0.2096394 0.02599831
vt 0.2101305 0.02583462
vt 0.2106376 0.0259384
vt 0.2110249 0.02628184
vt 0.2111886 0.02677291
vt 0.03024455 -0.1166822
vt 0.0300413 -0.1162062
vt 0.02728223 -0.1173841
vt 0.02748548 -0.1178602
vt 0.1237016 -0.1477883
vt 0.1233337 -0.1474241
vt 0.1212231 -0.1495561
vt 0.121591 -0.1499203
vt 0.1901774 0.0981091
vt 0.189739 0.09783392
vt 0.1913338 0.09529292
vt 0.1917722 0.09556811
vt 0.09322715 0.1521363
vt 0.09300259 0.1516699
vt 0.09570561 0.1503684
vt 0.09593017 0.1508348
vt 0.04715226 0.08362795
vt 0.04698708 0.08313737
vt 0.04983024 0.08218004
vt 0.04999541 0.08267061
vt 0.01273875 -0.01899617
vt 0.01257828 -0.01948831
vt 0.0154305 -0.0204183
vt 0.01559097 -0.01992616
vt -0.0300403 -0.1162066
vt -0.03024354 -0.1166826
vt -0.02748447 -0.1178606
vt -0.02728122 -0.1173845
vt -0.1233321 -0.1474256
vt -0.1236999 -0.1477897
vt -0.1215893 -0.1499217
vt -0.1212215 -0.1495575
vt -0.189739 0.09783375
vt -0.1901775 0.09810893
vt -0.1917723 0.09556794
vt -0.1913338 0.09529276
vt -0.09300207 0.1516702
vt -0.09322663 0.1521366
vt -0.09592964 0.1508351
vt -0.09570508 0.1503688
vt -0.0469865 0.08313759
vt -0.04715168 0.08362816
vt -0.04999483 0.08267082
vt -0.04982965 0.08218025
vt -0.01257838 -0.01948838
vt -0.01273884 -0.01899624
vt -0.01559106 -0.01992623
vt -0.01543059 -0.02041837
vt -0.2125302 0.02856177
vt -0.2123666 0.0280707
vt -0.2119792 0.02772726
vt -0.2114721 0.02762347
vt -0.210981 0.02778717
vt -0.2106376 0.02817447
vt -0.2105338 0.02868159
vt -0.2106975 0.02917267
vt -0.2110848 0.02951611
vt -0.211592 0.02961989
vt -0.212083 0.0294562
vt -0.2124265 0.0290689
vt 0.2124265 0.0290689
vt 0.212083 0.0294562
vt 0.211592 0.02961989
vt 0.2110848 0.02951611
vt 0.2106975 0.02917267
vt 0.2105338 0.02868159
vt 0.2106376 0.02817447
vt 0.210981 0.02778717
vt 0.2114721 0.02762347
vt 0.2119792 0.02772726
vt 0.2123666 0.0280707
vt 0.2125302 0.02856177
o group992368549
g mesh992368549
usemtl mat12
f 4/4/1 3/3/1 2/2/1 1/1/1
f 3/8/2 6/7/2 5/6/2 2/5/2
f 6/12/3 8/11/3 7/10/3 5/9/3
f 8/16/4 10/15/4 9/14/4 7/13/4
f 10/20/5 12/19/5 11/18/5 9/17/5
f 12/24/6 14/23/6 13/22/6 11/21/6
f 14/28/7 16/27/7 15/26/7 13/25/7
f 16/32/8 18/31/8 17/30/8 15/29/8
f 18/36/9 20/35/9 19/34/9 17/33/9
f 20/40/10 22/39/10 21/38/10 19/37/10
f 22/44/11 24/43/11 23/42/11 21/41/11
f 24/48/12 4/47/12 1/46/12 23/45/12
f 1/60/13 2/59/13 5/58/13 7/57/13 9/56/13 11/55/13 13/54/13 15/53/13 17/52/13 19/51/13 21/50/13 23/49/13
f 24/72/14 22/71/14 20/70/14 18/69/14 16/68/14 14/67/14 12/66/14 10/65/14 8/64/14 6/63/14 3/62/14 4/61/14
o group1093279528
g mesh1093279528
usemtl mat12
f 28/76/15 27/75/15 26/74/15 25/73/15
f 27/80/16 30/79/16 29/78/16 26/77/16
f 30/84/17 32/83/17 31/82/17 29/81/17
f 32/88/18 34/87/18 33/86/18 31/85/18
f 34/92/19 36/91/19 35/90/19 33/89/19
f 36/96/20 38/95/20 37/94/20 35/93/20
f 38/100/21 40/99/21 39/98/21 37/97/21
f 40/104/22 42/103/22 41/102/22 39/101/22
f 42/108/23 44/107/23 43/106/23 41/105/23
f 44/112/24 46/111/24 45/110/24 43/109/24
f 46/116/25 48/115/25 47/114/25 45/113/25
f 48/120/26 28/119/26 25/118/26 47/117/26
f 25/132/27 26/131/27 29/130/27 31/129/27 33/128/27 35/127/27 37/126/27 39/125/27 41/124/27 43/123/27 45/122/27 47/121/27
f 48/144/28 46/143/28 44/142/28 42/141/28 40/140/28 38/139/28 36/138/28 34/137/28 32/136/28 30/135/28 27/134/28 28/133/28
o group1470426596
g mesh1470426596
usemtl mat12
f 52/148/29 51/147/29 50/146/29 49/145/29
f 51/152/30 54/151/30 53/150/30 50/149/30
f 54/156/31 56/155/31 55/154/31 53/153/31
f 56/160/32 58/159/32 57/158/32 55/157/32
f 58/164/33 60/163/33 59/162/33 57/161/33
f 60/168/34 62/167/34 61/166/34 59/165/34
f 62/172/35 64/171/35 63/170/35 61/169/35
f 64/176/36 66/175/36 65/174/36 63/173/36
f 66/180/37 68/179/37 67/178/37 65/177/37
f 68/184/38 70/183/38 69/182/38 67/181/38
f 70/188/39 72/187/39 71/186/39 69/185/39
f 72/192/40 52/191/40 49/190/40 71/189/40
f 49/204/41 50/203/41 53/202/41 55/201/41 57/200/41 59/199/41 61/198/41 63/197/41 65/196/41 67/195/41 69/194/41 71/193/41
f 72/216/42 70/215/42 68/214/42 66/213/42 64/212/42 62/211/42 60/210/42 58/209/42 56/208/42 54/207/42 51/206/42 52/205/42
o group547957561
g mesh547957561
usemtl mat8
f 76/220/43 75/219/43 74/218/43 73/217/43
f 75/224/44 78/223/44 77/222/44 74/221/44
f 78/228/45 80/227/45 79/226/45 77/225/45
f 80/232/46 82/231/46 81/230/46 79/229/46
f 82/236/47 84/235/47 83/234/47 81/233/47
f 84/240/48 86/239/48 85/238/48 83/237/48
f 86/244/49 88/243/49 87/242/49 85/241/49
f 88/248/50 90/247/50 89/246/50 87/245/50
f 90/252/51 92/251/51 91/250/51 89/249/51
f 92/256/52 94/255/52 93/254/52 91/253/52
f 94/260/53 96/259/53 95/258/53 93/257/53
f 96/264/54 76/263/54 73/262/54 95/261/54
f 96/288/56 94/287/56 92/286/56 90/285/56 88/284/56 86/283/56 84/282/56 82/281/56 80/280/56 78/279/56 75/278/56 76/277/56
usemtl mat16
f 73/276/55 74/275/55 77/274/55 79/273/55 81/272/55 83/271/55 85/270/55 87/269/55 89/268/55 91/267/55 93/266/55 95/265/55
o group2051160685
g mesh2051160685
usemtl mat8
f 100/292/57 99/291/57 98/290/57 97/289/57
f 99/296/58 102/295/58 101/294/58 98/293/58
f 102/300/59 104/299/59 103/298/59 101/297/59
f 104/304/60 106/303/60 105/302/60 103/301/60
f 106/308/61 108/307/61 107/306/61 105/305/61
f 108/312/62 110/311/62 109/310/62 107/309/62
f 110/316/63 112/315/63 111/314/63 109/313/63
f 112/320/64 114/319/64 113/318/64 111/317/64
f 114/324/65 116/323/65 115/322/65 113/321/65
f 116/328/66 118/327/66 117/326/66 115/325/66
f 118/332/67 120/331/67 119/330/67 117/329/67
f 120/336/68 100/335/68 97/334/68 119/333/68
f 120/360/70 118/359/70 116/358/70 114/357/70 112/356/70 110/355/70 108/354/70 106/353/70 104/352/70 102/351/70 99/350/70 100/349/70
usemtl mat16
f 97/348/69 98/347/69 101/346/69 103/345/69 105/344/69 107/343/69 109/342/69 111/341/69 113/340/69 115/339/69 117/338/69 119/337/69
o group2045724089
g mesh2045724089
usemtl mat8
f 124/364/71 123/363/71 122/362/71 121/361/71
f 123/368/72 126/367/72 125/366/72 122/365/72
f 126/372/73 128/371/73 127/370/73 125/369/73
f 128/376/74 130/375/74 129/374/74 127/373/74
f 130/380/75 132/379/75 131/378/75 129/377/75
f 132/384/76 134/383/76 133/382/76 131/381/76
f 134/388/77 136/387/77 135/386/77 133/385/77
f 136/392/78 138/391/78 137/390/78 135/389/78
f 138/396/79 140/395/79 139/394/79 137/393/79
f 140/400/80 142/399/80 141/398/80 139/397/80
f 142/404/81 144/403/81 143/402/81 141/401/81
f 144/408/82 124/407/82 121/406/82 143/405/82
f 144/432/84 142/431/84 140/430/84 138/429/84 136/428/84 134/427/84 132/426/84 130/425/84 128/424/84 126/423/84 123/422/84 124/421/84
usemtl mat16
f 121/420/83 122/419/83 125/418/83 127/417/83 129/416/83 131/415/83 133/414/83 135/413/83 137/412/83 139/411/83 141/410/83 143/409/83
