mtllib materials.mtl
v 0.1233333 -0.4083334 0.1233333
v -0.2366668 -0.4083334 0.1233334
v -0.2366668 -0.3783334 0.1233334
v 0.1233333 -0.3783334 0.1233333
v 0.1233334 -0.4083334 -0.2366668
v 0.1233334 -0.3783334 -0.2366668
v -0.2366669 -0.3783334 -0.2366669
v -0.2366669 -0.4083334 -0.2366669
v 0.1033333 -0.3783332 0.1233333
v 0.1233333 -0.3783332 0.1233332
v 0.1233333 -0.3783332 0.1033333
v 0.1033333 -0.3783332 0.1033333
v 0.1033334 0.3816673 0.1233336
v 0.1033334 0.3816673 0.1033336
v 0.1233334 0.3816673 0.1033336
v 0.1233334 0.3816673 0.1233336
v -0.2366667 0.3816663 0.1233335
v -0.2366667 0.4016663 0.1233335
v 0.1233334 0.4016668 0.1233334
v 0.1233334 0.3816668 0.1233334
v -0.2366665 0.3816663 -0.2366668
v 0.1233334 0.3816665 -0.2366669
v 0.1233334 0.4016665 -0.2366669
v -0.2366666 0.4016663 -0.2366668
vn 1.291433E-07 -7.367814E-08 1
vn 4.91738E-07 -1.487319E-07 -1
vn 2.27181E-08 -1 2.328305E-08
vn -6.008602E-08 1 -6.208815E-08
vn 1 1.748456E-07 3.222029E-07
vn -1 -1.748456E-07 3.174088E-07
vn 0 -1 -1.769513E-07
vn 0 1 1.428657E-06
vn 7.498103E-09 -3.72872E-07 1
vn -5.049911E-09 3.152771E-07 -1
vn -1 2.951792E-10 7.264313E-08
vn 1 2.225995E-08 -4.936008E-08
vn 1.371601E-07 5.21541E-07 1
vn -1.126394E-07 5.960462E-07 -1
vn -1 -1.45535E-06 -4.164044E-07
vn 1 1.820815E-08 -5.960425E-08
vn 1.058448E-06 -1 2.656397E-07
vn -1.102427E-06 1 -2.213012E-07
vt 0.1516054 0.04337972
vt 0.1677051 0.01118032
vt 0.1703884 0.01252196
vt 0.1542887 0.04472136
vt -0.1516054 0.04337973
vt -0.1542887 0.04472137
vt -0.1703884 0.01252196
vt -0.1677051 0.01118032
vt -0.03235555 -0.01923844
vt -0.06625827 -0.007130315
vt -0.07836641 -0.04103305
vt -0.04446366 -0.05314117
vt 0.03235554 -0.01923844
vt 0.04446365 -0.05314116
vt 0.07836639 -0.04103305
vt 0.06625826 -0.007130313
vt 0.07056241 0.1400784
vt 0.07230613 0.1425195
vt 0.04301173 0.1634441
vt 0.04126801 0.1610029
vt -0.07056228 0.1400784
vt -0.04126784 0.161003
vt -0.04301155 0.1634442
vt -0.07230599 0.1425196
vt -0.03302826 -0.02112191
vt -0.03235559 -0.01923843
vt -0.03423907 -0.01856575
vt -0.03491174 -0.02044923
vt 0.03302852 -0.02112179
vt 0.03491201 -0.02044912
vt 0.03423934 -0.01856564
vt 0.03235585 -0.01923831
vt 0.1551831 0.04293249
vt 0.2231596 0.07692075
vt 0.2222652 0.07870959
vt 0.1542887 0.04472134
vt -0.1551831 0.0429325
vt -0.1542887 0.04472136
vt -0.2222652 0.07870962
vt -0.2231596 0.07692076
vt -0.07230603 0.1425196
vt -0.07067856 0.1436821
vt -0.1148527 0.2055259
vt -0.1164802 0.2043634
vt 0.07230604 0.1425196
vt 0.1164802 0.2043634
vt 0.1148527 0.2055258
vt 0.07067858 0.1436821
vt 0.2383648 0.04651024
vt 0.2401537 0.04740467
vt 0.224054 0.07960407
vt 0.2222652 0.07870965
vt -0.2383648 0.04651016
vt -0.2222651 0.07870954
vt -0.224054 0.07960397
vt -0.2401536 0.04740458
vt -0.1164806 0.2043632
vt -0.08718622 0.2252878
vt -0.08834869 0.2269153
vt -0.1176431 0.2059906
vt 0.1164802 0.2043634
vt 0.1176426 0.2059908
vt 0.08834819 0.2269154
vt 0.0871857 0.2252879
vt -0.04446349 -0.05314096
vt -0.03235539 -0.01923824
vt -0.06625814 -0.007130119
vt -0.07836623 -0.04103282
vt 0.0444635 -0.05314094
vt 0.07836623 -0.04103282
vt 0.06625815 -0.007130106
vt 0.0323554 -0.01923822
o group232527364
g mesh232527364
usemtl mat21
f 4/4/1 3/3/1 2/2/1 1/1/1
f 8/8/2 7/7/2 6/6/2 5/5/2
f 2/12/3 8/11/3 5/10/3 1/9/3
f 6/16/4 7/15/4 3/14/4 4/13/4
f 5/20/5 6/19/5 4/18/5 1/17/5
f 3/24/6 7/23/6 8/22/6 2/21/6
o group2024045087
g mesh2024045087
usemtl mat21
f 12/28/7 11/27/7 10/26/7 9/25/7
f 16/32/8 15/31/8 14/30/8 13/29/8
f 10/36/9 16/35/9 13/34/9 9/33/9
f 14/40/10 15/39/10 11/38/10 12/37/10
f 13/44/11 14/43/11 12/42/11 9/41/11
f 11/48/12 15/47/12 16/46/12 10/45/12
o group595323087
g mesh595323087
usemtl mat21
f 20/52/13 19/51/13 18/50/13 17/49/13
f 24/56/14 23/55/14 22/54/14 21/53/14
f 18/60/15 24/59/15 21/58/15 17/57/15
f 22/64/16 23/63/16 19/62/16 20/61/16
f 21/68/17 22/67/17 20/66/17 17/65/17
f 19/72/18 23/71/18 24/70/18 18/69/18
