mtllib materials.mtl
v -0.02499998 0 0
v -0.004999995 0.004999995 0.008660257
v -0.004999995 0 0.00999999
v -0.004999995 0.008660197 0.004999995
v -0.004999995 0.00999999 0
v -0.004999995 0.008660197 -0.004999995
v -0.004999995 0.004999995 -0.008660257
v -0.004999995 0 -0.00999999
v -0.004999995 -0.004999995 -0.008660257
v -0.004999995 -0.008660197 -0.004999995
v -0.004999995 -0.00999999 0
v -0.004999995 -0.008660197 0.004999995
v -0.004999995 -0.004999995 0.008660257
v -0.004999936 0.00999999 0
v -0.004999936 0.008660197 -0.004999995
v 0.03500003 0.008660197 -0.004999995
v 0.03500003 0.00999999 0
v -0.004999936 0.004999995 -0.008660257
v 0.03500003 0.004999995 -0.008660257
v -0.004999936 0 -0.00999999
v 0.03500003 0 -0.00999999
v -0.004999936 -0.004999995 -0.008660257
v 0.03500003 -0.004999995 -0.008660257
v -0.004999936 -0.008660197 -0.004999995
v 0.03500003 -0.008660197 -0.004999995
v -0.004999936 -0.00999999 0
v 0.03500003 -0.00999999 0
v -0.004999936 -0.008660197 0.004999995
v 0.03500003 -0.008660197 0.004999995
v -0.004999936 -0.004999995 0.008660257
v 0.03500003 -0.004999995 0.008660257
v -0.004999936 0 0.00999999
v 0.03500003 0 0.00999999
v -0.004999936 0.004999995 0.008660257
v 0.03500003 0.004999995 0.008660257
v -0.004999936 0.008660197 0.004999995
v 0.03500003 0.008660197 0.004999995
vn -0.4348984 0.2330612 0.8697965
vn -0.4348984 0.6367353 0.6367351
vn -0.4348983 0.8697966 0.2330611
vn -0.4348983 0.8697966 -0.2330613
vn -0.4348982 0.6367352 -0.6367353
vn -0.4348981 0.2330611 -0.8697966
vn -0.4348981 -0.2330615 -0.8697965
vn -0.4348981 -0.6367354 -0.6367351
vn -0.4348982 -0.8697966 -0.2330613
vn -0.4348983 -0.8697965 0.2330612
vn -0.4348983 -0.6367353 0.6367351
vn -0.4348984 -0.233061 0.8697965
vn 1 5.960464E-08 1.788139E-07
vn 0 1 0
vn 0 0.8660254 -0.5
vn 0 0.5 -0.8660254
vn 0 -4.371139E-08 -1
vn 0 -0.5000001 -0.8660254
vn 0 -0.8660254 -0.5000001
vn 0 -1 8.742278E-08
vn 0 -0.8660253 0.5000002
vn 0 -0.4999999 0.8660254
vn 0 1.192488E-08 1
vn 0 0.4999999 0.8660254
vn 0 0.8660256 0.4999998
vn -1 0 0
vn 1 0 0
vt 0.1344074 0.07941696
vt 0.1333285 0.08137546
vt 0.132907 0.08107489
vt 0.05305309 0.04956139
vt 0.05207131 0.05157039
vt 0.05163566 0.05129082
vt -0.03627001 0.003250155
vt -0.03693336 0.005385562
vt -0.03740659 0.005175813
vt -0.12426 -0.0240832
vt -0.1244145 -0.02185248
vt -0.1249233 -0.02194779
vt -0.1899131 -0.02103721
vt -0.1894632 -0.01884687
vt -0.1899789 -0.01880212
vt -0.2140853 -0.01171703
vt -0.2131023 -0.009708675
vt -0.2135904 -0.009536436
vt -0.1964736 -0.02896298
vt -0.1951371 -0.0271703
vt -0.1955851 -0.02691102
vt -0.1449005 -0.08113614
vt -0.1434063 -0.07947259
vt -0.1438289 -0.07917359
vt -0.05744987 -0.1469568
vt -0.0560233 -0.145235
vt -0.05645746 -0.1449531
vt 0.07731891 -0.1689963
vt 0.07826348 -0.1669696
vt 0.07777214 -0.1668067
vt 0.2006558 -0.06891429
vt 0.2005635 -0.06668013
vt 0.2000523 -0.06676122
vt 0.1993206 0.04950004
vt 0.1984572 0.05156267
vt 0.198006 0.05130887
vt 0.1739065 0.1006704
vt 0.1740881 0.1011551
vt 0.174003 0.1016657
vt 0.173674 0.1020654
vt 0.1731893 0.102247
vt 0.1726787 0.1021619
vt 0.172279 0.1018329
vt 0.1720974 0.1013481
vt 0.1721825 0.1008375
vt 0.1725115 0.1004379
vt 0.1729963 0.1002563
vt 0.1735069 0.1003414
vt -0.05233394 -0.09726848
vt -0.05186307 -0.09710032
vt -0.05320842 -0.09333335
vt -0.05367929 -0.09350152
vt -0.157849 -0.0834896
vt -0.1573499 -0.08346
vt -0.1575867 -0.07946701
vt -0.1580858 -0.07949661
vt -0.2115701 -0.02252565
vt -0.2110856 -0.02264894
vt -0.2100993 -0.01877246
vt -0.2105838 -0.01864917
vt -0.196774 0.01565248
vt -0.1963268 0.01542887
vt -0.1945379 0.01900658
vt -0.1949851 0.01923018
vt -0.1388337 -0.001833727
vt -0.1384072 -0.002094597
vt -0.1363202 0.001317809
vt -0.1367467 0.001578679
vt -0.05400143 -0.05458496
vt -0.05356505 -0.05482902
vt -0.05161252 -0.05133796
vt -0.0520489 -0.05109389
vt 0.05233396 -0.09726848
vt 0.05280484 -0.09743665
vt 0.05415018 -0.09366969
vt 0.05367931 -0.09350152
vt 0.1578491 -0.08348957
vt 0.1583482 -0.08351917
vt 0.158585 -0.07952618
vt 0.1580858 -0.07949658
vt 0.2115701 -0.02252565
vt 0.2120547 -0.02240235
vt 0.2110683 -0.01852587
vt 0.2105838 -0.01864916
vt 0.196774 0.01565248
vt 0.1972212 0.01587608
vt 0.1954323 0.01945379
vt 0.1949851 0.01923018
vt 0.1388337 -0.001833715
vt 0.1392603 -0.001572845
vt 0.1371733 0.00183956
vt 0.1367468 0.001578691
vt 0.05400137 -0.054585
vt 0.05443776 -0.05434093
vt 0.05248522 -0.05084986
vt 0.05204883 -0.05109393
vt -0.174003 0.1016658
vt -0.1740881 0.1011552
vt -0.1739065 0.1006705
vt -0.1735068 0.1003415
vt -0.1729963 0.1002564
vt -0.1725115 0.100438
vt -0.1721825 0.1008376
vt -0.1720974 0.1013482
vt -0.172279 0.1018329
vt -0.1726786 0.1021619
vt -0.1731893 0.102247
vt -0.173674 0.1020654
vt 0.173674 0.1020654
vt 0.1731893 0.102247
vt 0.1726786 0.1021619
vt 0.172279 0.1018329
vt 0.1720974 0.1013482
vt 0.1721825 0.1008376
vt 0.1725115 0.100438
vt 0.1729963 0.1002564
vt 0.1735068 0.1003415
vt 0.1739065 0.1006705
vt 0.1740881 0.1011552
vt 0.174003 0.1016658
o group1862661924
g mesh1862661924
usemtl mat17
f 3/3/1 2/2/1 1/1/1
f 2/6/2 4/5/2 1/4/2
f 4/9/3 5/8/3 1/7/3
f 5/12/4 6/11/4 1/10/4
f 6/15/5 7/14/5 1/13/5
f 7/18/6 8/17/6 1/16/6
f 8/21/7 9/20/7 1/19/7
f 9/24/8 10/23/8 1/22/8
f 10/27/9 11/26/9 1/25/9
f 11/30/10 12/29/10 1/28/10
f 12/33/11 13/32/11 1/31/11
f 13/36/12 3/35/12 1/34/12
f 13/48/13 12/47/13 11/46/13 10/45/13 9/44/13 8/43/13 7/42/13 6/41/13 5/40/13 4/39/13 2/38/13 3/37/13
o group151039033
g mesh151039033
usemtl mat17
f 17/52/14 16/51/14 15/50/14 14/49/14
f 16/56/15 19/55/15 18/54/15 15/53/15
f 19/60/16 21/59/16 20/58/16 18/57/16
f 21/64/17 23/63/17 22/62/17 20/61/17
f 23/68/18 25/67/18 24/66/18 22/65/18
f 25/72/19 27/71/19 26/70/19 24/69/19
f 27/76/20 29/75/20 28/74/20 26/73/20
f 29/80/21 31/79/21 30/78/21 28/77/21
f 31/84/22 33/83/22 32/82/22 30/81/22
f 33/88/23 35/87/23 34/86/23 32/85/23
f 35/92/24 37/91/24 36/90/24 34/89/24
f 37/96/25 17/95/25 14/94/25 36/93/25
f 14/108/26 15/107/26 18/106/26 20/105/26 22/104/26 24/103/26 26/102/26 28/101/26 30/100/26 32/99/26 34/98/26 36/97/26
f 37/120/27 35/119/27 33/118/27 31/117/27 29/116/27 27/115/27 25/114/27 23/113/27 21/112/27 19/111/27 16/110/27 17/109/27
