mtllib materials.mtl
v -0.009999998 0 0
v -0.009396926 0.001710057 0.002961993
v -0.009396926 0 0.003420204
v -0.009396926 0.002961993 0.001710087
v -0.009396926 0.003420234 0
v -0.009396926 0.002961993 -0.001710117
v -0.009396926 0.001710057 -0.002961993
v -0.009396926 0 -0.003420204
v -0.009396926 -0.001710057 -0.002961993
v -0.009396926 -0.002961993 -0.001710117
v -0.009396926 -0.003420234 0
v -0.009396926 -0.002961993 0.001710087
v -0.009396926 -0.001710057 0.002961993
v -0.007660441 0.003213882 0.005566716
v -0.007660449 0 0.006427884
v -0.007660441 0.005566716 0.003213942
v -0.007660441 0.006427884 0
v -0.007660441 0.005566716 -0.003213942
v -0.007660441 0.003213882 -0.005566716
v -0.007660441 0 -0.006427884
v -0.007660441 -0.003213882 -0.005566716
v -0.007660441 -0.005566716 -0.003213942
v -0.007660441 -0.006427884 0
v -0.007660441 -0.005566716 0.003213942
v -0.007660441 -0.003213882 0.005566716
v -0.005000003 0.004330158 0.007499993
v -0.005000003 0 0.008660257
v -0.005000003 0.007500052 0.004330128
v -0.005000003 0.008660197 0
v -0.005000003 0.007500052 -0.004330128
v -0.004999995 0.004330158 -0.007499993
v -0.004999995 0 -0.008660257
v -0.004999995 -0.004330158 -0.007499993
v -0.005000003 -0.007500052 -0.004330128
v -0.005000003 -0.008660197 0
v -0.005000003 -0.007500052 0.004330128
v -0.005000003 -0.004330158 0.007499993
v -0.001736484 0.004924059 0.00852868
v -0.001736484 0 0.009848088
v -0.001736484 0.008528709 0.004924029
v -0.001736484 0.009848118 0
v -0.001736477 0.008528709 -0.004924029
v -0.001736477 0.004924059 -0.00852868
v -0.001736477 0 -0.009848088
v -0.001736477 -0.004924059 -0.00852868
v -0.001736477 -0.008528709 -0.004924029
v -0.001736484 -0.009848118 0
v -0.001736484 -0.008528709 0.004924029
v -0.001736484 -0.004924059 0.00852868
v 0.001736484 0.004924059 0.00852868
v 0.001736484 0 0.009848088
v 0.001736484 0.008528709 0.004924029
v 0.001736484 0.009848118 0
v 0.001736484 0.008528709 -0.004924029
v 0.001736484 0.004924059 -0.00852868
v 0.001736484 0 -0.009848088
v 0.001736484 -0.004924059 -0.00852868
v 0.001736484 -0.008528709 -0.004924029
v 0.001736484 -0.009848118 0
v 0.001736484 -0.008528709 0.004924029
v 0.001736484 -0.004924059 0.00852868
v 0.005000003 0.004330158 0.007499993
v 0.005000003 0 0.008660257
v 0.005000003 0.007500052 0.004330128
v 0.005000003 0.008660197 0
v 0.005000003 0.007500052 -0.004330128
v 0.005000003 0.004330158 -0.007499993
v 0.005000003 0 -0.008660257
v 0.005000003 -0.004330158 -0.007499993
v 0.005000003 -0.007500052 -0.004330128
v 0.005000003 -0.008660197 0
v 0.005000003 -0.007500052 0.004330128
v 0.005000003 -0.004330158 0.007499993
v 0.007660441 0.003213882 0.005566716
v 0.007660441 0 0.006427884
v 0.007660441 0.005566716 0.003213942
v 0.007660441 0.006427884 0
v 0.007660441 0.005566716 -0.003213942
v 0.007660441 0.003213882 -0.005566716
v 0.007660449 0 -0.006427884
v 0.007660441 -0.003213882 -0.005566716
v 0.007660441 -0.005566716 -0.003213942
v 0.007660441 -0.006427884 0
v 0.007660441 -0.005566716 0.003213942
v 0.007660441 -0.003213882 0.005566716
v 0.009396926 0.001710057 0.002961993
v 0.009396926 0 0.003420204
v 0.009396926 0.002961993 0.001710087
v 0.009396926 0.003420234 0
v 0.009396926 0.002961993 -0.001710087
v 0.009396926 0.001710057 -0.002961993
v 0.009396926 0 -0.003420204
v 0.009396926 -0.001710057 -0.002961963
v 0.009396926 -0.002961993 -0.001710087
v 0.009396926 -0.003420234 0
v 0.009396926 -0.002961993 0.001710087
v 0.009396926 -0.001710057 0.002961993
v 0.009999998 0 0
vn -1 -5.960464E-08 -1.788139E-07
vn -1 -5.960464E-08 -1.788139E-07
vn -1 -5.960464E-08 -1.788139E-07
vn -1 -5.960464E-08 -1.788139E-07
vn -1 -5.960464E-08 -1.788139E-07
vn -1 -5.960464E-08 -1.788139E-07
vn -1 -5.960464E-08 -1.788139E-07
vn -1 -5.960464E-08 -1.788139E-07
vn -1 -5.960464E-08 -1.788139E-07
vn -1 -5.960464E-08 -1.788139E-07
vn -1 -5.960464E-08 -1.788139E-07
vn -1 -5.960464E-08 -1.788139E-07
vn -0.9396927 -5.601004E-08 0.34202
vn -0.9396927 0.17101 0.296198
vn -0.9396927 0.2961982 0.1710099
vn -0.9396926 0.3420202 -2.033663E-07
vn -0.9396926 0.2961981 -0.1710103
vn -0.9396926 0.1710101 -0.2961983
vn -0.9396926 -8.59104E-08 -0.3420204
vn -0.9396926 -0.1710102 -0.2961983
vn -0.9396926 -0.2961982 -0.1710102
vn -0.9396926 -0.3420203 -1.435656E-07
vn -0.9396926 -0.2961982 0.1710099
vn -0.9396927 -0.1710101 0.2961981
vn -0.7660446 -4.565981E-08 0.6427876
vn -0.7660446 0.3213938 0.5566703
vn -0.7660445 0.5566704 0.3213936
vn -0.7660444 0.6427876 -2.033897E-07
vn -0.7660444 0.5566704 -0.321394
vn -0.7660444 0.3213938 -0.5566706
vn -0.7660444 -1.018541E-07 -0.6427878
vn -0.7660444 -0.321394 -0.5566704
vn -0.7660444 -0.5566705 -0.3213938
vn -0.7660444 -0.6427877 -9.100113E-08
vn -0.7660445 -0.5566705 0.3213937
vn -0.7660445 -0.3213937 0.5566704
vn -0.5000001 -2.980232E-08 0.8660254
vn -0.5000001 0.4330128 0.7499999
vn -0.5 0.7500001 0.4330126
vn -0.4999999 0.8660254 -1.788813E-07
vn -0.4999999 0.75 -0.4330129
vn -0.4999999 0.4330128 -0.7500001
vn -0.4999999 -1.055127E-07 -0.8660255
vn -0.4999999 -0.4330129 -0.75
vn -0.4999999 -0.7500001 -0.4330127
vn -0.4999999 -0.8660255 -2.746057E-08
vn -0.5 -0.7500001 0.4330126
vn -0.5000001 -0.4330126 0.7500001
vn -0.1736482 -1.035023E-08 0.9848078
vn -0.1736482 0.4924039 0.8528685
vn -0.1736482 0.8528687 0.4924038
vn -0.1736481 0.9848078 -1.327971E-07
vn -0.173648 0.8528685 -0.492404
vn -0.173648 0.4924039 -0.8528685
vn -0.173648 -9.644487E-08 -0.9848078
vn -0.173648 -0.4924041 -0.8528684
vn -0.173648 -0.8528687 -0.4924038
vn -0.1736481 -0.9848078 3.939213E-08
vn -0.1736481 -0.8528686 0.4924038
vn -0.1736482 -0.4924037 0.8528687
vn 0.1736481 1.035024E-08 0.9848078
vn 0.1736481 0.4924039 0.8528686
vn 0.1736481 0.8528686 0.4924038
vn 0.1736482 0.9848078 -7.069571E-08
vn 0.1736482 0.8528685 -0.4924039
vn 0.1736483 0.4924039 -0.8528684
vn 0.1736483 -7.57444E-08 -0.9848077
vn 0.1736483 -0.4924041 -0.8528684
vn 0.1736483 -0.8528687 -0.4924037
vn 0.1736482 -0.9848078 1.014935E-07
vn 0.1736481 -0.8528686 0.4924038
vn 0.1736481 -0.4924037 0.8528687
vn 0.4999999 2.980232E-08 0.8660254
vn 0.5 0.4330128 0.7500001
vn 0.5 0.7500001 0.4330127
vn 0.5 0.8660254 -6.733458E-11
vn 0.5000001 0.75 -0.4330126
vn 0.5000001 0.4330128 -0.7499999
vn 0.5000002 -4.590802E-08 -0.8660253
vn 0.5000002 -0.4330129 -0.7499998
vn 0.5000002 -0.7500001 -0.4330125
vn 0.5000001 -0.8660254 1.513534E-07
vn 0.5 -0.75 0.4330128
vn 0.5 -0.4330125 0.7500002
vn 0.7660444 4.565981E-08 0.6427878
vn 0.7660444 0.3213939 0.5566705
vn 0.7660444 0.5566705 0.3213939
vn 0.7660444 0.6427877 7.056915E-08
vn 0.7660445 0.5566705 -0.3213938
vn 0.7660445 0.3213939 -0.5566703
vn 0.7660446 -1.053448E-08 -0.6427876
vn 0.7660446 -0.3213939 -0.5566702
vn 0.7660446 -0.5566705 -0.3213936
vn 0.7660444 -0.6427876 1.829577E-07
vn 0.7660444 -0.5566704 0.3213939
vn 0.7660444 -0.3213936 0.5566707
vn 0.9396926 5.601005E-08 0.3420202
vn 0.9396926 0.1710101 0.2961982
vn 0.9396927 0.2961981 0.1710101
vn 0.9396927 0.3420201 1.32694E-07
vn 0.9396927 0.2961981 -0.1710099
vn 0.9396927 0.1710101 -0.2961979
vn 0.9396927 2.610971E-08 -0.3420198
vn 0.9396927 -0.17101 -0.2961978
vn 0.9396927 -0.296198 -0.1710098
vn 0.9396927 -0.34202 1.924947E-07
vn 0.9396927 -0.296198 0.1710102
vn 0.9396926 -0.1710099 0.2961982
vt -0.1288148 0.1218186
vt -0.1291552 0.1217856
vt -0.1290931 0.1216199
vt -0.1288148 0.1218186
vt -0.1291261 0.1219603
vt -0.1291552 0.1217856
vt -0.1288148 0.1218186
vt -0.1290136 0.122097
vt -0.1291261 0.1219603
vt -0.1288148 0.1218186
vt -0.1288478 0.1221591
vt -0.1290136 0.122097
vt -0.1288148 0.1218186
vt -0.1286732 0.12213
vt -0.1288478 0.1221591
vt -0.1288148 0.1218186
vt -0.1285365 0.1220175
vt -0.1286732 0.12213
vt -0.1288148 0.1218186
vt -0.1284744 0.1218517
vt -0.1285365 0.1220175
vt -0.1288148 0.1218186
vt -0.1285035 0.121677
vt -0.1284744 0.1218517
vt -0.1288148 0.1218186
vt -0.128616 0.1215403
vt -0.1285035 0.121677
vt -0.1288148 0.1218186
vt -0.1287818 0.1214782
vt -0.128616 0.1215403
vt -0.1288148 0.1218186
vt -0.1289564 0.1215073
vt -0.1287818 0.1214782
vt -0.1288148 0.1218186
vt -0.1290931 0.1216199
vt -0.1289564 0.1215073
vt -0.02665607 0.1743563
vt -0.02661082 0.1745268
vt -0.02691302 0.1746811
vt -0.02699806 0.1743607
vt -0.03965198 0.1661659
vt -0.03954048 0.1663025
vt -0.03975219 0.1665677
vt -0.03996174 0.1663109
vt -0.06568538 0.1512275
vt -0.06553231 0.1513151
vt -0.06563487 0.1516385
vt -0.06592255 0.151474
vt -0.09573667 0.1331557
vt -0.09556279 0.1331852
vt -0.09554761 0.1335241
vt -0.09587438 0.1334688
vt -0.1241251 0.1147734
vt -0.1239517 0.1147414
vt -0.1238212 0.1150547
vt -0.1241472 0.1151147
vt -0.1465662 0.09613098
vt -0.1464143 0.09604155
vt -0.1461844 0.09629109
vt -0.14647 0.09645919
vt -0.1608135 0.07511728
vt -0.1607014 0.07498111
vt -0.1603998 0.07513656
vt -0.1606104 0.0753925
vt -0.1671981 0.05072818
vt -0.1671409 0.05056134
vt -0.166804 0.05060109
vt -0.1669114 0.05091465
vt -0.1684168 0.02751545
vt -0.1684282 0.02733946
vt -0.1681019 0.02724661
vt -0.1680805 0.02757735
vt -0.168299 0.02410811
vt -0.1683972 0.02396161
vt -0.1681615 0.02371753
vt -0.167977 0.02399286
vt -0.1446308 0.09594797
vt -0.1448071 0.09594746
vt -0.1448777 0.09561559
vt -0.1445463 0.09561653
vt -0.05176294 0.1694346
vt -0.05182806 0.1695985
vt -0.05216271 0.1695425
vt -0.05204032 0.1692345
vt 0.08704211 0.1520231
vt 0.08728608 0.1522425
vt 0.08709569 0.1525218
vt 0.08676697 0.1522263
vt 0.03371992 0.1539325
vt 0.03399169 0.1541163
vt 0.0338414 0.1544192
vt 0.03347525 0.1541715
vt -0.02026847 0.1339867
vt -0.01996455 0.1341103
vt -0.02004891 0.1344377
vt -0.02045839 0.1342712
vt -0.07405129 0.1092423
vt -0.07372607 0.1092857
vt -0.07372559 0.1096237
vt -0.07416375 0.1095653
vt -0.1214412 0.09028786
vt -0.1211167 0.09023911
vt -0.1210223 0.09056371
vt -0.1214594 0.0906294
vt -0.1543049 0.07602087
vt -0.1540075 0.07588242
vt -0.1538251 0.07616709
vt -0.1542259 0.07635363
vt -0.1679895 0.05539716
vt -0.1677389 0.05518532
vt -0.1674881 0.05541197
vt -0.1678257 0.0556974
vt -0.1630227 0.01779733
vt -0.1628263 0.01753453
vt -0.1625309 0.01769891
vt -0.1627955 0.01805299
vt -0.1407498 -0.0389923
vt -0.1406004 -0.0392844
vt -0.1402815 -0.03917207
vt -0.1404828 -0.03877851
vt -0.09245674 -0.1093089
vt -0.09232104 -0.1096076
vt -0.09199732 -0.1095101
vt -0.09218015 -0.1091077
vt 0.07540865 -0.1399253
vt 0.07569167 -0.1400913
vt 0.07590012 -0.1398251
vt 0.0755188 -0.1396015
vt 0.1461706 0.09613345
vt 0.1464281 0.09633674
vt 0.146256 0.0966277
vt 0.145909 0.09635379
vt 0.1352898 0.109808
vt 0.1356741 0.1100158
vt 0.1355256 0.1103209
vt 0.1350886 0.1100846
vt 0.0781317 0.1196286
vt 0.07851548 0.1198373
vt 0.07836623 0.120142
vt 0.07792982 0.1199047
vt 0.01281658 0.09451451
vt 0.01322235 0.09467642
vt 0.01311019 0.09499665
vt 0.01264876 0.09481253
vt -0.0565417 0.06508232
vt -0.0561116 0.06515905
vt -0.05615686 0.06549532
vt -0.05664594 0.06540807
vt -0.1192939 0.05309853
vt -0.1188585 0.05306248
vt -0.118816 0.05339912
vt -0.1193111 0.05344011
vt -0.1591565 0.05684824
vt -0.1587464 0.05669773
vt -0.158616 0.05701097
vt -0.1590824 0.05718213
vt -0.1676497 0.05276414
vt -0.1672842 0.05252485
vt -0.1670864 0.05280054
vt -0.167502 0.05307264
vt -0.1476224 0.020869
vt -0.1472975 0.02057691
vt -0.1470601 0.0208193
vt -0.1474295 0.02115145
vt -0.1011838 -0.03832498
vt -0.1008736 -0.03863259
vt -0.1006246 -0.03840209
vt -0.1009773 -0.03805228
vt -0.0181109 -0.09905796
vt -0.01776538 -0.09932532
vt -0.01754645 -0.0990661
vt -0.01793935 -0.09876207
vt 0.1079571 -0.08646442
vt 0.1083816 -0.08656769
vt 0.1084758 -0.08624174
vt 0.1079931 -0.08612431
vt 0.1683874 0.03322186
vt 0.1688077 0.03334101
vt 0.1687292 0.03367111
vt 0.1682513 0.03353562
vt 0.1543874 0.08030678
vt 0.1548313 0.08052122
vt 0.1546683 0.08082193
vt 0.1542245 0.0806075
vt 0.1071833 0.08069497
vt 0.1076126 0.08093731
vt 0.1074308 0.08122701
vt 0.1070015 0.08098467
vt 0.04087566 0.04529021
vt 0.04131923 0.04550523
vt 0.0411559 0.04580573
vt 0.04071233 0.04559071
vt -0.03902579 0.009515669
vt -0.0385514 0.009649619
vt -0.03865954 0.009974094
vt -0.03913393 0.009840145
vt -0.117066 0.008023932
vt -0.1165731 0.008027777
vt -0.1165916 0.008369293
vt -0.1170846 0.008365448
vt -0.1629807 0.03950375
vt -0.1625066 0.03936872
vt -0.1624283 0.03970166
vt -0.1629024 0.03983669
vt -0.1633689 0.06167904
vt -0.1629345 0.06144614
vt -0.1627871 0.06175476
vt -0.1632215 0.06198766
vt -0.1291124 0.04522904
vt -0.1287049 0.0449517
vt -0.1285258 0.04524308
vt -0.1289333 0.04552043
vt -0.0688641 -0.00322668
vt -0.06845257 -0.00349803
vt -0.06827777 -0.003204051
vt -0.0686893 -0.002932702
vt 0.01717097 -0.04886835
vt 0.01762004 -0.04907161
vt 0.01774644 -0.04875381
vt 0.01729736 -0.04855054
vt 0.1140349 -0.03983058
vt 0.1145246 -0.03988659
vt 0.1145476 -0.03954535
vt 0.1140579 -0.03948934
vt 0.1663958 0.02809566
vt 0.1668754 0.02820931
vt 0.1667812 0.02853809
vt 0.1663015 0.02842444
vt 0.1633689 0.06167903
vt 0.1638034 0.06191193
vt 0.1636036 0.06219246
vt 0.1632215 0.06198766
vt 0.1291124 0.04522906
vt 0.12952 0.0455064
vt 0.1292917 0.04576434
vt 0.1289333 0.04552045
vt 0.06886412 -0.003226682
vt 0.06927565 -0.002955333
vt 0.06905121 -0.002694085
vt 0.06868932 -0.002932704
vt -0.01717097 -0.04886837
vt -0.01672189 -0.04866511
vt -0.01690245 -0.04837181
vt -0.01729736 -0.04855056
vt -0.1140349 -0.03983058
vt -0.1135451 -0.03977456
vt -0.1136272 -0.03944007
vt -0.1140579 -0.03948934
vt -0.1663958 0.02809561
vt -0.1659161 0.02798196
vt -0.1658797 0.02832445
vt -0.1663015 0.02842439
vt -0.1543874 0.0803068
vt -0.1539436 0.08009236
vt -0.1538341 0.08041894
vt -0.1542245 0.08060752
vt -0.1071833 0.08069497
vt -0.106754 0.08045264
vt -0.106624 0.08077156
vt -0.1070015 0.08098467
vt -0.04087564 0.04529022
vt -0.04043207 0.0450752
vt -0.04032224 0.04540163
vt -0.04071231 0.04559071
vt 0.03902579 0.009515687
vt 0.03950018 0.009381738
vt 0.0395511 0.009722369
vt 0.03913393 0.009840163
vt 0.117066 0.008023942
vt 0.1175589 0.008020097
vt 0.117518 0.008362076
vt 0.1170845 0.008365458
vt 0.1629807 0.03950378
vt 0.1634548 0.03963881
vt 0.1633193 0.03995546
vt 0.1629024 0.03983672
vt 0.1676497 0.05276413
vt 0.1680152 0.05300341
vt 0.1677733 0.05325023
vt 0.167502 0.05307263
vt 0.1476224 0.02086901
vt 0.1479473 0.02116109
vt 0.1476707 0.02136826
vt 0.1474295 0.02115146
vt 0.1011838 -0.03832497
vt 0.101494 -0.03801736
vt 0.1012076 -0.03782396
vt 0.1009774 -0.03805228
vt 0.0181109 -0.09905796
vt 0.01845642 -0.0987906
vt 0.01819581 -0.09856363
vt 0.01793936 -0.09876208
vt -0.1079571 -0.08646443
vt -0.1075326 -0.08636116
vt -0.107678 -0.08604766
vt -0.1079931 -0.08612431
vt -0.1683874 0.03322179
vt -0.1679671 0.03310265
vt -0.1679393 0.03344711
vt -0.1682512 0.03353555
vt -0.1352898 0.109808
vt -0.1349055 0.1096002
vt -0.1348034 0.1099304
vt -0.1350886 0.1100846
vt -0.07813167 0.1196286
vt -0.0777479 0.1194198
vt -0.07764494 0.1197497
vt -0.07792979 0.1199047
vt -0.01281655 0.09451453
vt -0.01241078 0.09435262
vt -0.01234756 0.09469237
vt -0.01264874 0.09481255
vt 0.0565417 0.06508234
vt 0.05697179 0.06500562
vt 0.05696516 0.06535114
vt 0.05664594 0.06540809
vt 0.1192938 0.05309854
vt 0.1197292 0.0531346
vt 0.1196343 0.05346689
vt 0.1193111 0.05344013
vt 0.1591566 0.05684825
vt 0.1595667 0.05699876
vt 0.1593868 0.05729384
vt 0.1590824 0.05718213
vt 0.1679895 0.05539716
vt 0.16824 0.05560901
vt 0.1679589 0.05581012
vt 0.1678257 0.0556974
vt 0.1630227 0.01779735
vt 0.1632191 0.01806016
vt 0.1629 0.01819285
vt 0.1627955 0.01805301
vt 0.1407498 -0.0389923
vt 0.1408992 -0.03870019
vt 0.1405623 -0.03862309
vt 0.1404828 -0.03877851
vt 0.09245674 -0.1093089
vt 0.09259243 -0.1090101
vt 0.09225234 -0.1089487
vt 0.09218015 -0.1091077
vt -0.07540873 -0.1399253
vt -0.07512571 -0.1397593
vt -0.0753683 -0.1395131
vt -0.07551889 -0.1396015
vt -0.1461706 0.09613338
vt -0.1459131 0.09593008
vt -0.145772 0.09624556
vt -0.145909 0.09635373
vt -0.08704209 0.1520231
vt -0.08679812 0.1518038
vt -0.08663713 0.1521096
vt -0.08676695 0.1522263
vt -0.03371989 0.1539325
vt -0.03344813 0.1537487
vt -0.03333061 0.1540737
vt -0.03347522 0.1541715
vt 0.02026847 0.1339867
vt 0.0205724 0.1338631
vt 0.0206201 0.1342054
vt 0.02045839 0.1342711
vt 0.07405129 0.1092423
vt 0.07437651 0.1091989
vt 0.07433678 0.1095422
vt 0.07416375 0.1095653
vt 0.1214412 0.09028785
vt 0.1217656 0.09033661
vt 0.121632 0.09065533
vt 0.1214594 0.09062938
vt 0.154305 0.07602087
vt 0.1546024 0.07615931
vt 0.1543842 0.0764273
vt 0.1542259 0.07635362
vt 0.1608135 0.0751173
vt 0.1609255 0.07525347
vt 0.1606104 0.07539251
vt 0.1671981 0.05072821
vt 0.1672552 0.05089505
vt 0.1669113 0.05091467
vt 0.1684168 0.0275155
vt 0.1684054 0.02769147
vt 0.1680805 0.02757739
vt 0.168299 0.0241082
vt 0.1682009 0.0242547
vt 0.167977 0.02399295
vt 0.1446307 0.09594803
vt 0.1444544 0.09594853
vt 0.1445462 0.09561661
vt 0.05176307 0.1694345
vt 0.05169794 0.1692707
vt 0.05204045 0.1692344
vt 0.02665614 0.1743563
vt 0.02670139 0.1741859
vt 0.02699813 0.1743607
vt 0.03965204 0.1661659
vt 0.03976354 0.1660293
vt 0.0399618 0.1663109
vt 0.06568541 0.1512275
vt 0.06583848 0.15114
vt 0.06592258 0.151474
vt 0.09573667 0.1331557
vt 0.09591054 0.1331263
vt 0.09587439 0.1334688
vt 0.1241251 0.1147734
vt 0.1242985 0.1148053
vt 0.1241472 0.1151147
vt 0.1465663 0.09613098
vt 0.1467182 0.09622042
vt 0.14647 0.09645917
o group730829222
g mesh730829222
usemtl mat12
f 3/3/1 2/2/1 1/1/1
f 2/6/2 4/5/2 1/4/2
f 4/9/3 5/8/3 1/7/3
f 5/12/4 6/11/4 1/10/4
f 6/15/5 7/14/5 1/13/5
f 7/18/6 8/17/6 1/16/6
f 8/21/7 9/20/7 1/19/7
f 9/24/8 10/23/8 1/22/8
f 10/27/9 11/26/9 1/25/9
f 11/30/10 12/29/10 1/28/10
f 12/33/11 13/32/11 1/31/11
f 13/36/12 3/35/12 1/34/12
f 15/40/13 14/39/13 2/38/13 3/37/13
f 14/44/14 16/43/14 4/42/14 2/41/14
f 16/48/15 17/47/15 5/46/15 4/45/15
f 17/52/16 18/51/16 6/50/16 5/49/16
f 18/56/17 19/55/17 7/54/17 6/53/17
f 19/60/18 20/59/18 8/58/18 7/57/18
f 20/64/19 21/63/19 9/62/19 8/61/19
f 21/68/20 22/67/20 10/66/20 9/65/20
f 22/72/21 23/71/21 11/70/21 10/69/21
f 23/76/22 24/75/22 12/74/22 11/73/22
f 24/80/23 25/79/23 13/78/23 12/77/23
f 25/84/24 15/83/24 3/82/24 13/81/24
f 27/88/25 26/87/25 14/86/25 15/85/25
f 26/92/26 28/91/26 16/90/26 14/89/26
f 28/96/27 29/95/27 17/94/27 16/93/27
f 29/100/28 30/99/28 18/98/28 17/97/28
f 30/104/29 31/103/29 19/102/29 18/101/29
f 31/108/30 32/107/30 20/106/30 19/105/30
f 32/112/31 33/111/31 21/110/31 20/109/31
f 33/116/32 34/115/32 22/114/32 21/113/32
f 34/120/33 35/119/33 23/118/33 22/117/33
f 35/124/34 36/123/34 24/122/34 23/121/34
f 36/128/35 37/127/35 25/126/35 24/125/35
f 37/132/36 27/131/36 15/130/36 25/129/36
f 39/136/37 38/135/37 26/134/37 27/133/37
f 38/140/38 40/139/38 28/138/38 26/137/38
f 40/144/39 41/143/39 29/142/39 28/141/39
f 41/148/40 42/147/40 30/146/40 29/145/40
f 42/152/41 43/151/41 31/150/41 30/149/41
f 43/156/42 44/155/42 32/154/42 31/153/42
f 44/160/43 45/159/43 33/158/43 32/157/43
f 45/164/44 46/163/44 34/162/44 33/161/44
f 46/168/45 47/167/45 35/166/45 34/165/45
f 47/172/46 48/171/46 36/170/46 35/169/46
f 48/176/47 49/175/47 37/174/47 36/173/47
f 49/180/48 39/179/48 27/178/48 37/177/48
f 51/184/49 50/183/49 38/182/49 39/181/49
f 50/188/50 52/187/50 40/186/50 38/185/50
f 52/192/51 53/191/51 41/190/51 40/189/51
f 53/196/52 54/195/52 42/194/52 41/193/52
f 54/200/53 55/199/53 43/198/53 42/197/53
f 55/204/54 56/203/54 44/202/54 43/201/54
f 56/208/55 57/207/55 45/206/55 44/205/55
f 57/212/56 58/211/56 46/210/56 45/209/56
f 58/216/57 59/215/57 47/214/57 46/213/57
f 59/220/58 60/219/58 48/218/58 47/217/58
f 60/224/59 61/223/59 49/222/59 48/221/59
f 61/228/60 51/227/60 39/226/60 49/225/60
f 63/232/61 62/231/61 50/230/61 51/229/61
f 62/236/62 64/235/62 52/234/62 50/233/62
f 64/240/63 65/239/63 53/238/63 52/237/63
f 65/244/64 66/243/64 54/242/64 53/241/64
f 66/248/65 67/247/65 55/246/65 54/245/65
f 67/252/66 68/251/66 56/250/66 55/249/66
f 68/256/67 69/255/67 57/254/67 56/253/67
f 69/260/68 70/259/68 58/258/68 57/257/68
f 70/264/69 71/263/69 59/262/69 58/261/69
f 71/268/70 72/267/70 60/266/70 59/265/70
f 72/272/71 73/271/71 61/270/71 60/269/71
f 73/276/72 63/275/72 51/274/72 61/273/72
f 75/280/73 74/279/73 62/278/73 63/277/73
f 74/284/74 76/283/74 64/282/74 62/281/74
f 76/288/75 77/287/75 65/286/75 64/285/75
f 77/292/76 78/291/76 66/290/76 65/289/76
f 78/296/77 79/295/77 67/294/77 66/293/77
f 79/300/78 80/299/78 68/298/78 67/297/78
f 80/304/79 81/303/79 69/302/79 68/301/79
f 81/308/80 82/307/80 70/306/80 69/305/80
f 82/312/81 83/311/81 71/310/81 70/309/81
f 83/316/82 84/315/82 72/314/82 71/313/82
f 84/320/83 85/319/83 73/318/83 72/317/83
f 85/324/84 75/323/84 63/322/84 73/321/84
f 87/328/85 86/327/85 74/326/85 75/325/85
f 86/332/86 88/331/86 76/330/86 74/329/86
f 88/336/87 89/335/87 77/334/87 76/333/87
f 89/340/88 90/339/88 78/338/88 77/337/88
f 90/344/89 91/343/89 79/342/89 78/341/89
f 91/348/90 92/347/90 80/346/90 79/345/90
f 92/352/91 93/351/91 81/350/91 80/349/91
f 93/356/92 94/355/92 82/354/92 81/353/92
f 94/360/93 95/359/93 83/358/93 82/357/93
f 95/364/94 96/363/94 84/362/94 83/361/94
f 96/368/95 97/367/95 85/366/95 84/365/95
f 97/372/96 87/371/96 75/370/96 85/369/96
f 98/375/97 86/374/97 87/373/97
f 98/378/98 88/377/98 86/376/98
f 98/381/99 89/380/99 88/379/99
f 98/384/100 90/383/100 89/382/100
f 98/387/101 91/386/101 90/385/101
f 98/390/102 92/389/102 91/388/102
f 98/393/103 93/392/103 92/391/103
f 98/396/104 94/395/104 93/394/104
f 98/399/105 95/398/105 94/397/105
f 98/402/106 96/401/106 95/400/106
f 98/405/107 97/404/107 96/403/107
f 98/408/108 87/407/108 97/406/108
