mtllib materials.mtl
v -0.1098014 0.01242089 -0.1097293
v 0.09181809 -0.0147835 0.2589297
v 0.09611642 -0.02922869 0.255186
v 0.09426725 0.0005419254 0.2583941
v 0.1028076 0.01264119 0.2537227
v 0.1151509 0.01827228 0.2461671
v 0.1279898 0.01592648 0.2377518
v 0.1378839 0.006232142 0.2307317
v 0.1421822 -0.008212924 0.226988
v 0.1397331 -0.02353847 0.2275236
v 0.1311927 -0.03563774 0.232195
v 0.1188494 -0.04126883 0.2397506
v 0.1060106 -0.03892303 0.248166
v -0.1092694 0.01271939 -0.1100527
v 0.06251705 -0.1088352 0.02820021
v 0.06348395 -0.1193879 0.01684856
v 0.06667018 -0.09513354 0.0342145
v 0.07483029 -0.08195424 0.03327978
v 0.08481097 -0.07282877 0.02564669
v 0.09393799 -0.07020223 0.01336032
v 0.09976566 -0.07477832 -0.000287056
v 0.1007324 -0.08533108 -0.0116387
v 0.09657943 -0.09903276 -0.01765293
v 0.08841932 -0.1122119 -0.01671827
v 0.07843864 -0.1213374 -0.009085119
v 0.06931162 -0.1239641 0.003201187
v -0.1101207 0.01163602 -0.1094326
v 0.05580699 0.08302951 0.03606999
v 0.0649538 0.07189989 0.03027147
v 0.04975128 0.09729934 0.03514528
v 0.04840934 0.1108859 0.02774513
v 0.05214059 0.1201484 0.01585245
v 0.05994546 0.1226053 0.002653837
v 0.06973243 0.1175981 -0.008314133
v 0.07887924 0.1064684 -0.01411265
v 0.08493483 0.09219861 -0.01318794
v 0.08627689 0.07861209 -0.005787849
v 0.08254552 0.06934953 0.006104827
v 0.07474077 0.06689274 0.0193035
vn -0.8301308 -0.3578381 0.427592
vn -0.8619626 0.1546233 0.4828169
vn -0.6727915 0.626704 0.3931839
vn -0.3133061 0.93191 0.1827104
vn 0.12017 0.9884619 -0.09220771
vn 0.5114874 0.7812066 -0.3579063
vn 0.7557927 0.3656778 -0.5431916
vn 0.7876245 -0.1467836 -0.5984164
vn 0.5984535 -0.6188641 -0.5087835
vn 0.2389681 -0.92407 -0.29831
vn -0.1945081 -0.980622 -0.02339182
vn -0.5858256 -0.7733666 0.2423068
vn 0.5400036 -0.05695049 0.8397338
vn -0.7263523 -0.5331584 0.4337679
vn -0.6717417 -0.1174424 0.7314168
vn -0.460696 0.3432927 0.8184799
vn -0.149765 0.725593 0.6716288
vn 0.1777378 0.9270217 0.3302122
vn 0.4340582 0.8936061 -0.1142877
vn 0.5505155 0.6342997 -0.5427675
vn 0.4959049 0.2185837 -0.8404163
vn 0.2848593 -0.2421512 -0.9274794
vn -0.0260717 -0.6244515 -0.7806284
vn -0.3535746 -0.8258802 -0.4392117
vn -0.6098951 -0.7924646 0.005288294
vn 0.7635768 -0.4392101 0.473334
vn -0.3348425 -0.6369579 0.6943812
vn -0.5950973 -0.2021381 0.7778171
vn -0.7217398 0.2747412 0.6353023
vn -0.6808361 0.6659001 0.3050237
vn -0.4833465 0.866528 -0.1245209
vn -0.1821882 0.8228671 -0.5382354
vn 0.1419439 0.5466161 -0.8252653
vn 0.4021987 0.1117962 -0.9087012
vn 0.5288411 -0.3650829 -0.7661864
vn 0.4879375 -0.7562417 -0.4359078
vn 0.2904479 -0.9568697 -0.006363097
vn -0.01071053 -0.9132087 0.4073514
vn 0.7715814 0.3613606 0.5235273
vt 0.1815068 0.1046332
vt 0.1563432 0.138394
vt 0.1551154 0.1374432
vt 0.05085645 0.1283399
vt 0.009908521 0.1381515
vt 0.009574577 0.1366349
vt 0.0235228 0.02487753
vt -0.01785396 0.0326855
vt -0.01811373 0.03115446
vt 0.003545212 -0.08920012
vt -0.03767215 -0.08059031
vt -0.0379616 -0.082116
vt -0.0228374 -0.1793999
vt -0.06325967 -0.1676084
vt -0.06366698 -0.1691069
vt -0.08428509 -0.2092575
vt -0.1202782 -0.1874058
vt -0.1210595 -0.1887479
vt -0.2092009 0.03084598
vt -0.1944867 0.07029838
vt -0.1959514 0.07081412
vt -0.09550232 0.1078564
vt -0.05633638 0.123317
vt -0.05693312 0.1247507
vt -0.05493319 0.01639419
vt -0.01376069 0.02521605
vt -0.01411398 0.02672824
vt -0.03273573 -0.09414526
vt 0.008852024 -0.08755291
vt 0.00858066 -0.08602388
vt -0.01222318 -0.1839756
vt 0.02937949 -0.177478
vt 0.02911161 -0.1759484
vt 0.02640565 -0.2246441
vt 0.06709749 -0.2138194
vt 0.06667067 -0.2123262
vt 0.2139391 -0.07121357
vt 0.2154859 -0.07107608
vt 0.2167567 -0.07018361
vt 0.2174111 -0.0687753
vt 0.2172736 -0.06722848
vt 0.2163811 -0.06595763
vt 0.2149728 -0.06530328
vt 0.213426 -0.06544076
vt 0.2121552 -0.06633324
vt 0.2115008 -0.06774156
vt 0.2116383 -0.06928837
vt 0.2125308 -0.07055922
vt 0.1760783 -0.1368745
vt 0.1751636 -0.1117118
vt 0.1736142 -0.111816
vt 0.1808445 0.05988871
vt 0.1583073 0.07111691
vt 0.157658 0.06970625
vt 0.144948 0.01535171
vt 0.1212085 0.02374455
vt 0.1207363 0.02226518
vt 0.1165155 -0.06912312
vt 0.09291078 -0.06035854
vt 0.09241539 -0.06183031
vt 0.07927828 -0.1549675
vt 0.05672734 -0.1437669
vt 0.05607976 -0.1451783
vt 0.002495632 -0.2146255
vt -0.01575131 -0.1972748
vt -0.01678619 -0.1984326
vt -0.17149 -0.1493616
vt -0.1698875 -0.1242333
vt -0.1714396 -0.1241823
vt -0.2092253 -0.006684399
vt -0.1895086 0.008976137
vt -0.1905115 0.01016178
vt -0.1790396 -0.01583307
vt -0.1557516 -0.006258714
vt -0.1563861 -0.004841343
vt -0.1531007 -0.08088574
vt -0.1289784 -0.07366674
vt -0.1294692 -0.07219346
vt -0.1256631 -0.153589
vt -0.1014644 -0.1466303
vt -0.1019394 -0.1451518
vt -0.07411358 -0.2113705
vt -0.05109673 -0.2011614
vt -0.05176983 -0.199762
vt 0.1661604 -0.02878616
vt 0.1677131 -0.0287632
vt 0.1690463 -0.02796694
vt 0.1698028 -0.02661075
vt 0.1697799 -0.02505801
vt 0.1689836 -0.02372477
vt 0.1676274 -0.02296827
vt 0.1660747 -0.02299124
vt 0.1647414 -0.02378749
vt 0.163985 -0.02514368
vt 0.1640079 -0.02669642
vt 0.1648042 -0.02802967
vt 0.1876981 -0.1283191
vt 0.1996022 -0.108412
vt 0.1982434 -0.10766
vt 0.2020455 0.02119651
vt 0.1996019 0.04426227
vt 0.198064 0.04404707
vt 0.09640072 0.08014964
vt 0.08276752 0.09891494
vt 0.08154242 0.09796063
vt 0.002741905 0.01622949
vt -0.01415685 0.03211761
vt -0.0151821 0.03095125
vt -0.07068177 -0.07245202
vt -0.0876567 -0.0566453
vt -0.08867633 -0.05781659
vt -0.1396547 -0.1274601
vt -0.1543341 -0.1095014
vt -0.1555029 -0.1105239
vt -0.2015165 -0.1046423
vt -0.2098304 -0.08298872
vt -0.2112607 -0.08359357
vt -0.2052862 -0.01102915
vt -0.2021084 0.01194696
vt -0.2036529 0.01210811
vt -0.1294309 0.02865361
vt -0.1166451 0.0480062
vt -0.1179687 0.04881837
vt -0.0439018 -0.02379989
vt -0.02689002 -0.008032847
vt -0.02798317 -0.006929867
vt 0.03083126 -0.1062472
vt 0.04904 -0.09187906
vt 0.04803777 -0.09069286
vt 0.1056441 -0.1606839
vt 0.1228857 -0.1451685
vt 0.1218088 -0.1440495
vt 0.2103879 -0.08214684
vt 0.211805 -0.08278208
vt 0.2133498 -0.0826237
vt 0.2146085 -0.08171411
vt 0.2152437 -0.08029707
vt 0.2150853 -0.07875225
vt 0.2141757 -0.0774936
vt 0.2127587 -0.07685836
vt 0.2112139 -0.07701676
vt 0.2099552 -0.07792632
vt 0.20932 -0.07934337
vt 0.2094783 -0.08088819
o group97575256
g mesh97575256
usemtl mat12
f 3/3/1 2/2/1 1/1/1
f 2/6/2 4/5/2 1/4/2
f 4/9/3 5/8/3 1/7/3
f 5/12/4 6/11/4 1/10/4
f 6/15/5 7/14/5 1/13/5
f 7/18/6 8/17/6 1/16/6
f 8/21/7 9/20/7 1/19/7
f 9/24/8 10/23/8 1/22/8
f 10/27/9 11/26/9 1/25/9
f 11/30/10 12/29/10 1/28/10
f 12/33/11 13/32/11 1/31/11
f 13/36/12 3/35/12 1/34/12
f 13/48/13 12/47/13 11/46/13 10/45/13 9/44/13 8/43/13 7/42/13 6/41/13 5/40/13 4/39/13 2/38/13 3/37/13
o group571837600
g mesh571837600
usemtl mat12
f 16/51/14 15/50/14 14/49/14
f 15/54/15 17/53/15 14/52/15
f 17/57/16 18/56/16 14/55/16
f 18/60/17 19/59/17 14/58/17
f 19/63/18 20/62/18 14/61/18
f 20/66/19 21/65/19 14/64/19
f 21/69/20 22/68/20 14/67/20
f 22/72/21 23/71/21 14/70/21
f 23/75/22 24/74/22 14/73/22
f 24/78/23 25/77/23 14/76/23
f 25/81/24 26/80/24 14/79/24
f 26/84/25 16/83/25 14/82/25
f 26/96/26 25/95/26 24/94/26 23/93/26 22/92/26 21/91/26 20/90/26 19/89/26 18/88/26 17/87/26 15/86/26 16/85/26
o group540512575
g mesh540512575
usemtl mat12
f 29/99/27 28/98/27 27/97/27
f 28/102/28 30/101/28 27/100/28
f 30/105/29 31/104/29 27/103/29
f 31/108/30 32/107/30 27/106/30
f 32/111/31 33/110/31 27/109/31
f 33/114/32 34/113/32 27/112/32
f 34/117/33 35/116/33 27/115/33
f 35/120/34 36/119/34 27/118/34
f 36/123/35 37/122/35 27/121/35
f 37/126/36 38/125/36 27/124/36
f 38/129/37 39/128/37 27/127/37
f 39/132/38 29/131/38 27/130/38
f 39/144/39 38/143/39 37/142/39 36/141/39 35/140/39 34/139/39 33/138/39 32/137/39 31/136/39 30/135/39 28/134/39 29/133/39
